<?xml version="1.0" standalone="no"?>
<!DOCTYPE svg PUBLIC "-//W3C//DTD SVG 20010904//EN"
 "http://www.w3.org/TR/2001/REC-SVG-20010904/DTD/svg10.dtd">
<svg version="1.0" xmlns="http://www.w3.org/2000/svg"
 width="1000.000000pt" height="1000.000000pt" viewBox="0 0 1000.000000 1000.000000"
 preserveAspectRatio="xMidYMid meet">

<g transform="translate(0.000000,1000.000000) scale(0.100000,-0.100000)"
fill="#000000" stroke="none">
<path d="M5027 8606 c-21 -21 -38 -51 -46 -80 -17 -69 -1 -115 56 -165 l46
-41 -50 0 c-161 0 -398 -90 -618 -235 -102 -68 -285 -215 -336 -272 -30 -33
-45 -41 -85 -47 -58 -8 -147 -58 -181 -103 l-25 -33 -29 38 c-80 102 -186 158
-354 188 -104 18 -182 18 -310 -2 -138 -22 -141 -24 -115 -93 12 -30 37 -115
56 -189 53 -205 95 -294 183 -385 72 -76 179 -122 324 -142 26 -3 46 -9 43
-13 -2 -4 -11 -59 -20 -122 -49 -342 -79 -466 -136 -581 -39 -77 -105 -157
-144 -176 -45 -21 -101 -11 -123 23 -21 33 -35 17 -23 -28 12 -41 85 -114 124
-124 14 -3 26 -9 26 -13 0 -3 -60 -23 -133 -45 -72 -21 -140 -45 -149 -54 -12
-9 -18 -30 -18 -54 0 -53 38 -199 57 -220 23 -25 106 -31 213 -15 52 8 97 13
99 11 11 -10 -35 -95 -74 -136 -49 -52 -50 -71 -5 -87 l29 -10 -34 -34 c-38
-38 -43 -61 -21 -92 7 -11 16 -36 19 -55 17 -105 50 -193 90 -238 12 -12 37
-25 58 -28 34 -6 37 -10 43 -45 8 -49 49 -96 119 -133 39 -21 58 -39 65 -60 7
-17 41 -67 78 -111 112 -135 129 -168 149 -286 20 -120 45 -208 85 -296 l28
-61 -13 -144 c-8 -79 -14 -144 -14 -145 -1 -1 -81 -64 -178 -140 -327 -254
-509 -423 -533 -497 -27 -84 10 -352 75 -533 33 -94 77 -173 94 -173 5 0 30
48 56 108 50 116 147 294 196 362 29 40 33 42 71 37 22 -3 42 -8 45 -11 3 -3
-19 -33 -50 -68 -68 -78 -127 -166 -127 -191 0 -50 236 -292 335 -343 33 -18
98 -44 145 -59 47 -15 92 -30 102 -33 15 -7 188 -207 188 -219 0 -3 -25 -47
-56 -99 -45 -76 -53 -96 -45 -112 18 -34 95 -53 236 -59 112 -4 140 -2 203 15
40 12 89 31 109 43 63 39 180 136 259 215 l76 76 118 1 c117 2 118 2 201 44
82 42 132 53 144 33 11 -19 35 -10 45 16 6 14 15 69 21 122 7 53 15 100 18
104 4 5 24 -14 44 -41 34 -45 39 -60 62 -190 32 -180 44 -325 38 -432 -8 -127
17 -137 138 -57 84 56 290 261 369 368 74 99 127 206 136 270 4 35 -3 74 -30
169 -28 95 -102 316 -143 426 -2 6 11 10 29 11 18 0 40 4 49 8 13 6 17 -2 23
-42 6 -48 41 -114 75 -139 9 -7 30 -13 46 -13 17 0 45 -4 64 -10 62 -18 134
34 161 117 34 102 -20 360 -91 439 -16 17 -18 26 -9 48 15 40 12 83 -9 157
-30 105 -68 169 -101 169 -14 0 -16 8 -12 55 4 52 3 55 -36 94 -33 33 -41 49
-47 93 -4 29 -14 70 -21 92 -8 21 -14 44 -14 50 0 6 30 27 66 46 83 44 134 98
134 143 0 49 -66 304 -93 358 -22 45 -22 49 -7 54 33 10 70 53 70 81 0 16 10
34 26 47 48 37 66 108 41 157 -11 21 -11 29 1 48 16 25 21 96 9 128 -7 19 -3
22 28 28 29 6 39 14 51 41 8 19 14 49 14 67 0 18 4 48 10 66 10 39 153 219
158 202 2 -6 -1 -31 -7 -55 -6 -24 -11 -49 -11 -54 0 -22 26 -10 46 22 52 83
84 181 84 263 l0 51 54 0 c210 0 329 300 296 742 -6 86 -18 201 -26 256 -19
136 -20 130 29 149 62 24 171 110 228 180 46 56 82 123 203 377 25 54 66 119
91 147 25 27 45 55 45 61 0 19 -41 29 -192 50 -352 48 -508 33 -630 -63 l-31
-24 -36 23 c-42 28 -105 44 -148 38 -27 -4 -33 0 -58 44 -184 318 -429 524
-755 636 -147 51 -386 87 -571 87 -130 0 -182 31 -304 180 -96 117 -156 138
-218 76z m97 -11 c17 -8 60 -50 95 -93 35 -42 86 -95 112 -117 l48 -40 -62
-12 c-92 -18 -136 -15 -192 11 -68 31 -115 86 -115 132 0 44 25 99 54 119 25
18 21 18 60 0z m661 -300 c275 -36 493 -117 672 -249 143 -105 268 -245 364
-407 l41 -69 -23 -20 c-13 -10 -27 -19 -32 -20 -21 -1 -93 60 -142 121 -127
157 -334 253 -641 299 -45 6 -115 10 -156 9 -71 -3 -76 -2 -112 28 -56 45
-191 110 -271 129 -90 21 -339 15 -430 -11 -83 -23 -192 -77 -240 -118 l-40
-34 -130 -6 c-173 -8 -350 -48 -456 -102 -32 -17 -33 -17 -19 0 26 31 158 135
254 199 262 176 488 248 761 244 50 0 119 4 155 9 100 16 316 15 445 -2z
m-1242 -402 c-7 -2 -21 -2 -30 0 -10 3 -4 5 12 5 17 0 24 -2 18 -5z m1570 0
c-7 -2 -21 -2 -30 0 -10 3 -4 5 12 5 17 0 24 -2 18 -5z m72 -13 c25 -11 -1
-11 -35 0 -20 6 -21 8 -5 8 11 0 29 -3 40 -8z m-1758 -6 c-3 -3 -12 -4 -19 -1
-8 3 -5 6 6 6 11 1 17 -2 13 -5z m-80 -20 c-3 -3 -12 -4 -19 -1 -8 3 -5 6 6 6
11 1 17 -2 13 -5z m-47 -14 c-8 -5 -19 -10 -25 -10 -5 0 -3 5 5 10 8 5 20 10
25 10 6 0 3 -5 -5 -10z m360 -48 c0 -99 -88 -199 -244 -276 -148 -73 -283
-102 -352 -76 -25 10 -26 13 -22 73 5 78 38 129 117 181 83 55 297 120 461
139 36 4 40 0 40 -41z m753 24 c34 -15 46 -34 31 -48 -3 -3 -26 6 -52 20 -58
33 -156 36 -215 8 -38 -19 -60 -15 -39 6 37 37 199 45 275 14z m747 -4 c79
-19 88 -28 76 -76 -3 -13 -23 -43 -45 -68 -113 -128 -426 -170 -608 -82 -33
16 -38 24 -41 57 -12 146 320 237 618 169z m-2885 -14 c-12 -51 -40 -110 -73
-151 -31 -39 -99 -97 -112 -97 -4 0 -13 21 -19 46 l-12 46 44 47 c24 26 50 65
57 87 18 55 16 54 71 54 l51 0 -7 -32z m34 -58 c-29 -92 -91 -178 -154 -213
-26 -15 -51 -24 -56 -21 -15 9 -10 34 9 41 72 27 137 103 168 197 24 73 34 90
46 78 7 -7 3 -34 -13 -82z m941 80 c-8 -5 -19 -10 -25 -10 -5 0 -3 5 5 10 8 5
20 10 25 10 6 0 3 -5 -5 -10z m-1110 -29 c0 -30 -55 -122 -77 -129 -21 -6 -15
27 12 62 14 18 30 47 36 64 14 40 29 41 29 3z m447 -34 c61 -32 173 -132 173
-156 0 -41 -22 -39 -63 6 -55 60 -151 134 -214 168 -29 15 -53 28 -53 30 0 9
112 -25 157 -48z m402 -64 c-23 -27 -58 -56 -77 -66 -18 -10 -41 -32 -50 -48
-10 -16 -22 -29 -29 -29 -30 0 -108 -212 -148 -403 -37 -173 -30 -164 25 33
53 194 103 331 126 351 14 11 15 9 10 -22 -4 -19 -17 -137 -31 -264 -19 -178
-31 -253 -55 -330 -119 -388 -164 -652 -137 -807 l8 -48 -35 0 c-20 0 -79 -7
-132 -15 -53 -9 -99 -13 -102 -10 -3 3 0 5 7 5 14 0 99 77 112 103 6 10 -14
-2 -44 -26 -80 -65 -114 -74 -174 -46 l-48 22 40 9 c80 18 151 91 216 224 52
107 81 223 118 484 68 467 141 708 252 834 42 47 127 96 167 96 23 0 22 -2
-19 -47z m1244 -97 c-88 -99 -92 -128 -5 -38 76 78 82 82 106 71 32 -15 44
-53 55 -174 l8 -90 3 65 c2 36 2 84 1 108 -2 23 -1 42 2 42 2 0 16 -17 30 -38
128 -195 460 -352 742 -352 86 0 138 -19 230 -85 65 -46 118 -109 179 -215 44
-76 51 -84 41 -50 -35 118 -151 260 -257 315 -53 28 -56 30 -33 37 36 9 138
-25 202 -67 110 -73 234 -291 274 -480 17 -82 17 -390 0 -485 -46 -262 -133
-444 -312 -656 -109 -129 -178 -241 -180 -293 -1 -26 -1 -26 -14 5 -26 58 15
153 120 278 36 44 77 98 91 122 30 51 54 159 53 239 l-1 60 -14 -80 c-28 -156
-49 -201 -153 -329 -35 -43 -77 -104 -93 -135 -26 -50 -29 -52 -23 -21 19 103
23 92 -44 124 -70 33 -96 56 -62 56 12 0 39 9 60 20 110 56 175 228 176 467 0
73 3 133 8 133 12 0 8 28 -6 37 -7 4 -21 37 -30 73 -36 131 -141 379 -168 396
-8 5 -10 2 -6 -8 42 -110 126 -350 132 -375 6 -31 5 -33 -22 -33 -15 1 -57 9
-93 19 -55 15 -65 21 -62 39 2 16 -1 19 -16 15 -22 -5 -37 14 -101 123 -22 38
-41 66 -41 62 0 -16 49 -115 78 -158 l31 -45 -90 -3 c-66 -2 -95 1 -110 12
-20 14 -20 14 10 21 47 10 37 25 -17 25 -45 0 -51 3 -104 58 -58 59 -158 204
-158 229 0 20 76 51 168 69 57 12 109 14 202 9 114 -6 123 -5 104 9 -27 19
-114 54 -179 72 -75 21 -204 18 -266 -5 l-51 -20 6 22 c3 12 8 49 11 82 l5 60
-16 -34 c-8 -19 -20 -59 -26 -90 -9 -43 -21 -67 -53 -103 -39 -43 -83 -133
-72 -144 3 -3 19 2 36 10 30 16 31 16 22 -6 -115 -293 -227 -458 -410 -602
-34 -26 -61 -44 -61 -41 0 4 13 25 29 48 15 23 40 66 55 95 28 55 97 281 95
310 -1 13 -3 12 -6 -3 -16 -65 -111 -298 -146 -356 -39 -66 -138 -186 -118
-144 5 11 18 49 30 85 18 53 19 66 8 77 -11 11 -17 10 -37 -7 -13 -12 -40 -30
-59 -42 l-34 -21 -17 21 c-9 11 -54 41 -100 65 -133 72 -159 104 -54 68 32
-12 60 -19 62 -16 7 7 4 9 -65 44 l-63 31 0 53 c0 46 -9 118 -25 211 l-5 28
70 -4 c50 -3 70 0 70 8 0 17 -68 72 -107 86 -36 13 -36 6 -1 160 27 122 120
308 193 386 30 33 55 62 55 66 0 30 -79 -39 -129 -113 -84 -124 -141 -263
-171 -421 l-11 -55 -74 -1 c-65 -1 -84 -6 -147 -37 -68 -34 -166 -117 -189
-159 -12 -23 -7 -22 41 2 68 35 190 71 268 80 42 4 80 6 84 4 15 -10 -56 -209
-87 -245 -9 -8 -31 -16 -51 -17 -46 -2 -74 -11 -74 -23 0 -5 15 -9 33 -9 l32
-1 -27 -15 c-27 -14 -78 -10 -78 6 0 4 6 25 14 46 7 22 16 69 19 104 l6 65
-20 -65 c-38 -124 -52 -155 -89 -192 -28 -28 -46 -38 -69 -38 -27 0 -31 3 -31
28 -1 25 -2 25 -12 8 -6 -11 -10 -39 -9 -63 1 -31 -5 -52 -20 -73 -26 -34 -20
-66 9 -51 17 9 20 4 31 -43 18 -80 63 -165 120 -228 l53 -58 -28 0 c-54 0 -58
-11 -24 -74 29 -56 41 -114 20 -101 -26 16 -91 129 -125 217 -21 54 -40 97
-41 95 -10 -9 51 -199 77 -241 16 -27 28 -50 26 -53 -3 -2 -30 19 -60 47 -61
55 -90 116 -103 209 -6 48 -24 82 -24 46 0 -10 -5 -13 -12 -9 -16 10 -4 333
22 583 35 341 19 364 -25 36 -41 -301 -51 -491 -36 -668 12 -152 46 -344 75
-427 l16 -45 -20 25 c-60 73 -94 176 -115 349 l-13 106 -2 -90 c-2 -76 -4 -86
-13 -62 -13 32 -27 36 -27 6 0 -74 52 -203 127 -317 54 -82 153 -172 189 -172
23 0 16 -14 -17 -33 -17 -9 -36 -30 -42 -46 l-10 -28 -36 24 c-25 17 -44 23
-63 19 -24 -5 -28 -1 -39 32 -17 52 -38 81 -63 88 -29 7 -60 61 -62 107 -1 53
-33 92 -73 92 -17 0 -31 0 -31 0 7 36 30 299 30 342 0 51 3 64 19 73 31 16 44
74 38 164 -7 100 -19 133 -53 148 -27 12 -27 13 -20 95 8 105 56 387 96 563
74 328 146 471 243 487 l37 6 -36 -38 c-42 -45 -101 -158 -143 -279 -33 -92
-38 -133 -6 -49 29 78 101 225 135 276 44 66 73 79 152 70 233 -28 477 35 683
178 99 68 158 134 187 211 26 67 37 75 111 77 l39 1 -49 -54z m2236 5 c9 -6
-9 -12 -54 -20 -88 -16 -165 -45 -211 -81 -28 -23 -40 -28 -50 -19 -22 18 -17
28 33 59 52 33 101 50 178 60 74 10 89 11 104 1z m190 -90 c14 -87 43 -160 77
-192 23 -21 33 -59 16 -59 -13 0 -68 62 -85 95 -26 54 -55 214 -42 235 12 20
22 -2 34 -79z m72 73 c34 -6 37 -9 42 -45 3 -22 15 -58 27 -80 l21 -41 -22
-54 c-13 -30 -28 -53 -33 -51 -30 10 -96 177 -96 243 0 36 3 37 61 28z m103
-65 c22 -67 11 -101 -14 -44 -20 43 -26 95 -11 95 5 0 16 -23 25 -51z m-796
12 c63 -33 116 -102 160 -210 54 -133 131 -540 162 -855 35 -365 -18 -635
-144 -736 -30 -24 -30 -24 5 18 21 24 40 53 43 65 4 16 -5 9 -30 -21 -20 -23
-50 -50 -67 -58 -36 -19 -115 -21 -146 -4 -28 14 -58 80 -66 140 l-6 45 13
-35 c27 -71 116 -105 192 -72 54 24 86 70 86 125 0 51 -12 46 -33 -13 -10 -27
-21 -50 -26 -50 -7 0 -6 57 3 135 13 109 -35 655 -84 950 -44 267 -101 390
-186 399 -21 2 -30 9 -32 25 -3 18 2 21 28 21 71 0 127 -49 189 -165 18 -33
30 -53 27 -44 -2 10 -10 34 -16 56 -30 98 -131 182 -205 170 -31 -5 -34 -3
-40 23 -3 16 -13 34 -21 41 -22 18 -17 34 19 52 45 22 129 21 175 -2z m-1054
-261 c49 -12 151 -25 225 -29 l136 -8 -123 -2 c-168 -2 -327 33 -470 101 -100
48 -81 50 35 2 59 -24 148 -53 197 -64z m965 35 c54 -46 94 -188 137 -492 23
-164 54 -475 53 -538 l0 -30 -16 30 c-20 40 -62 84 -94 100 -25 14 -26 17 -32
137 -5 124 -54 526 -86 716 -20 113 -16 122 38 77z m-2154 6 c-14 -13 -150
-60 -222 -77 -101 -23 -278 -34 -327 -20 -36 11 -29 12 74 8 131 -4 248 16
385 66 88 33 104 37 90 23z m-1039 -657 c-8 -88 -20 -253 -27 -369 -6 -115
-12 -211 -13 -212 0 0 -10 -3 -21 -5 -18 -3 -22 6 -34 84 -14 82 -13 96 8 225
22 136 91 446 98 439 2 -2 -3 -75 -11 -162z m2127 125 c40 -6 82 -16 94 -23
18 -9 8 -11 -60 -14 -108 -3 -219 -34 -313 -88 -43 -24 -79 -44 -81 -44 -12 0
33 63 70 97 47 44 120 73 205 82 7 0 46 -4 85 -10z m-249 -183 c21 -49 82
-143 132 -203 24 -28 44 -53 44 -56 0 -3 -15 -9 -32 -12 -55 -12 -201 -92
-246 -135 -55 -54 -54 -74 1 -23 92 85 284 165 321 133 15 -12 7 -17 -66 -42
-46 -16 -107 -43 -136 -61 -98 -59 -293 -287 -245 -287 3 0 40 22 82 49 80 51
161 95 166 89 2 -2 0 -21 -4 -43 -27 -163 66 -311 193 -309 71 1 122 20 172
66 62 57 88 124 89 228 0 47 -4 94 -10 105 -9 20 -9 20 20 0 55 -36 165 -86
215 -98 l50 -12 -6 -50 c-22 -183 -79 -311 -156 -351 -31 -16 -104 -19 -113
-4 -9 15 -35 12 -35 -4 0 -25 94 -114 146 -138 43 -20 50 -27 43 -43 -4 -11
-8 -50 -8 -87 -1 -66 -1 -67 -43 -101 -142 -114 -369 -224 -628 -306 -232 -72
-421 -85 -600 -38 -252 67 -408 137 -530 241 -87 73 -150 167 -130 191 8 10
13 47 13 99 1 71 -3 91 -24 133 l-26 49 63 -9 c107 -15 123 5 41 51 -99 56
-197 194 -213 300 -7 43 9 61 20 24 10 -31 63 -75 82 -68 14 5 15 15 9 61 l-6
55 61 0 c55 0 61 -2 55 -17 -61 -148 11 -341 151 -408 46 -22 136 -19 185 5
43 23 92 83 110 137 12 36 8 144 -6 177 -7 17 -6 18 11 11 10 -4 33 -13 51
-19 26 -9 31 -15 27 -32 -9 -34 10 -36 69 -10 186 82 371 271 485 494 40 79
98 222 118 290 6 22 24 13 38 -22z m-1013 -51 c24 -9 54 -23 66 -33 22 -16 17
-17 -125 -18 -131 -1 -155 -3 -220 -27 -69 -24 -73 -24 -55 -5 71 79 230 118
334 83z m-6 -267 l7 -96 -48 11 c-27 6 -50 11 -52 12 -1 1 9 26 22 56 14 29
31 75 38 102 16 62 23 43 33 -85z m2418 43 c81 -74 119 -208 110 -376 -6 -102
-7 -106 -31 -112 -35 -8 -91 23 -115 65 -11 18 -20 54 -20 82 -1 28 -5 50 -9
50 -19 0 -42 -71 -46 -140 -4 -69 -1 -80 27 -134 l32 -60 -48 -48 c-26 -27
-72 -61 -101 -75 -45 -22 -61 -25 -111 -20 -31 4 -67 10 -79 14 l-22 8 26 38
c14 21 45 75 68 120 l44 83 21 -43 c19 -40 45 -63 57 -51 3 3 -7 27 -21 54
-21 39 -26 59 -23 99 3 28 11 62 19 77 49 92 90 150 142 202 39 40 55 62 48
69 -14 14 -71 -31 -121 -95 -22 -27 -40 -46 -40 -41 1 54 26 146 52 186 29 46
72 87 90 87 4 0 28 -18 51 -39z m-2470 -152 c42 -9 57 -16 57 -28 0 -15 -6
-15 -79 -1 -62 11 -77 18 -69 27 13 16 20 16 91 2z m1670 -42 c15 -46 -3 -52
-59 -21 -86 47 -89 55 -15 52 61 -3 65 -5 74 -31z m142 -38 c4 -27 5 -52 3
-54 -2 -3 -21 9 -41 26 -33 27 -35 32 -25 54 7 16 20 25 34 25 19 0 23 -7 29
-51z m-574 -20 c23 -23 19 -47 -18 -96 -41 -55 -93 -40 -93 27 1 40 17 65 51
79 34 14 37 13 60 -10z m177 5 c28 -19 28 -56 1 -100 -24 -39 -21 -39 -60 -19
-69 36 -52 125 26 134 6 0 21 -6 33 -15z m-2232 -70 c-8 -29 2 -94 14 -94 4 0
12 20 16 46 5 25 14 45 19 45 24 -1 29 -221 6 -221 -5 0 -16 10 -24 23 -16 22
-16 22 -16 -11 -1 -34 -4 -37 -63 -47 -37 -6 -37 -6 -53 42 -9 27 -13 35 -11
18 3 -16 8 -38 11 -47 4 -10 3 -18 -3 -18 -21 0 -37 67 -37 157 0 79 -2 93
-16 93 -9 0 -19 -10 -23 -22 -9 -35 -7 -119 5 -163 6 -22 13 -49 15 -60 5 -19
-6 -23 -162 -53 -130 -24 -170 -29 -176 -19 -16 25 -38 114 -45 179 -4 48 -10
68 -19 68 -28 0 -17 -124 22 -249 5 -17 4 -23 -6 -19 -19 6 -49 102 -57 180
-4 48 -10 68 -19 68 -19 0 -18 -109 1 -183 20 -75 19 -77 -10 -77 -33 0 -49
28 -75 129 -29 115 -27 121 45 143 220 67 438 108 629 116 36 2 38 1 32 -24z
m1213 -78 c-13 -36 -22 -38 -39 -6 -9 16 -6 22 17 34 16 8 30 13 31 11 2 -2
-2 -19 -9 -39z m-401 22 c25 -25 14 -65 -30 -102 -63 -54 -98 -45 -98 26 0 51
35 88 83 88 18 0 38 -5 45 -12z m174 -25 c28 -32 30 -58 7 -86 -26 -34 -62
-35 -94 -2 -30 29 -31 45 -4 79 24 31 68 35 91 9z m1075 -34 c-4 -14 0 -19 14
-19 20 0 23 -8 13 -34 -7 -17 -34 -22 -34 -6 0 22 -17 8 -33 -26 -15 -30 -20
-34 -32 -24 -25 21 -17 58 21 100 36 40 60 44 51 9z m67 -60 c-3 -5 -10 -7
-15 -3 -5 3 -7 10 -3 15 3 5 10 7 15 3 5 -3 7 -10 3 -15z m113 -20 l28 -11
-33 -27 c-80 -68 -226 -67 -166 1 39 43 113 59 171 37z m-1397 -82 c0 -12 6
-17 18 -15 9 1 23 -2 31 -6 11 -7 22 0 42 24 l27 32 29 -20 c15 -11 37 -29 47
-41 19 -20 18 -21 -7 -59 -24 -36 -96 -82 -130 -82 -35 0 -107 34 -145 70 -43
38 -43 39 -28 68 9 17 30 41 47 55 29 23 33 23 50 9 11 -9 19 -25 19 -35z
m-824 -74 c-24 -276 -30 -333 -36 -333 -4 0 -13 7 -20 15 -7 8 -18 15 -24 16
-6 0 -25 21 -41 47 l-30 47 27 123 c14 68 29 126 32 129 5 6 62 20 85 22 10 1
12 -13 7 -66z m271 -5 c-2 -13 -4 -5 -4 17 -1 22 1 32 4 23 2 -10 2 -28 0 -40z
m-414 15 c-3 -16 -16 -68 -28 -118 l-21 -90 -12 78 c-18 119 -16 145 11 150
53 10 58 9 50 -20z m3377 -133 c-18 -81 -24 -83 -30 -6 -6 82 -25 98 -35 29
-8 -56 -37 -109 -99 -178 l-45 -50 -1 61 c0 40 -5 66 -14 73 -8 6 -44 20 -81
30 -64 18 -68 18 -85 1 -18 -18 -40 -99 -40 -150 0 -30 -14 -47 -25 -30 -3 5
-16 10 -28 10 -12 0 -34 10 -49 23 l-27 22 80 92 81 93 31 -17 c21 -12 55 -18
102 -18 59 0 78 5 123 29 28 16 73 52 100 80 l47 51 3 -45 c2 -25 -2 -70 -8
-100z m-3479 5 c6 -49 13 -98 15 -107 4 -13 0 -18 -16 -18 -11 0 -32 -7 -45
-16 -23 -15 -24 -15 -28 8 -12 63 -46 215 -52 229 -5 13 5 17 52 25 54 8 58 8
60 -11 2 -11 8 -60 14 -110z m583 -32 c15 -18 48 -48 74 -67 39 -28 51 -46 69
-95 l22 -60 -49 30 c-101 62 -161 150 -175 255 l-6 49 19 -40 c10 -22 31 -54
46 -72z m-704 -60 c0 -16 -13 -16 -63 -2 l-38 10 30 34 c16 19 33 44 37 57 6
19 9 14 20 -32 7 -30 13 -61 14 -67z m3260 7 c13 -8 13 -11 -2 -22 -13 -10
-19 -42 -28 -133 -17 -183 -20 -205 -32 -205 -11 0 -5 109 13 245 17 129 19
134 49 115z m-2424 -194 c60 -30 83 -51 84 -73 0 -7 -6 -13 -14 -13 -20 0 -76
-49 -76 -66 0 -52 -78 51 -119 156 -50 131 -49 136 13 77 30 -29 80 -65 112
-81z m2216 39 c12 -14 32 -25 45 -25 55 0 64 -14 57 -89 -9 -94 -2 -118 39
-129 26 -6 35 -16 46 -49 14 -39 13 -43 -14 -97 -27 -54 -28 -57 -10 -76 17
-19 16 -20 -13 -50 -17 -16 -37 -30 -46 -30 -9 0 -22 -12 -30 -28 -20 -38 -45
-59 -94 -76 -45 -16 -50 -12 -27 18 20 26 19 105 -1 155 -15 37 -14 40 10 76
30 44 33 92 10 137 -11 22 -13 33 -5 41 6 6 11 33 11 59 0 39 -6 54 -29 80
l-29 33 19 37 c23 45 32 47 61 13z m-2688 -26 c51 32 70 16 64 -51 -5 -43 -2
-51 19 -66 41 -30 33 -131 -17 -233 -32 -62 -95 -125 -137 -135 -37 -10 -148
48 -174 90 -23 38 -26 71 -3 38 21 -30 85 -31 115 -1 16 16 19 28 14 63 -5 31
-3 51 8 67 21 33 37 118 37 191 0 60 0 60 19 37 l18 -22 37 22z m2506 -84 c0
-17 57 -75 75 -75 9 0 11 12 7 45 -7 64 27 58 43 -8 6 -21 2 -36 -14 -57 -26
-36 -26 -42 -1 -65 30 -27 27 -86 -7 -125 -24 -30 -26 -35 -14 -64 31 -74 34
-111 16 -150 -17 -36 -58 -66 -90 -66 -9 0 -33 -13 -53 -29 -68 -54 -168 -49
-224 11 l-29 31 -57 -27 c-31 -15 -71 -28 -89 -28 -63 -2 -140 75 -150 150 -7
52 10 80 63 102 40 18 44 22 44 55 0 34 27 75 50 75 6 0 59 24 120 54 113 57
241 138 274 175 19 21 36 20 36 -4z m-2704 1 c1 0 11 -54 23 -119 23 -125 20
-147 -20 -147 -24 0 -24 0 -53 129 -31 135 -31 138 -8 144 13 4 53 -1 58 -7z
m845 -98 c71 -64 198 -139 296 -176 75 -28 95 -50 72 -78 -25 -30 -70 -46
-108 -39 -20 3 -51 9 -70 11 -49 7 -89 30 -106 63 -13 27 -19 29 -65 28 -41
-2 -54 2 -74 23 -38 40 -40 63 -10 100 27 32 27 32 11 76 -9 24 -14 44 -11 44
3 0 32 -24 65 -52z m-94 8 c9 -28 7 -39 -8 -63 -30 -45 -25 -87 17 -133 l36
-40 -39 0 c-22 0 -62 11 -91 26 -44 22 -52 30 -52 54 0 31 20 57 57 71 18 7
23 16 23 45 0 34 22 74 40 74 4 0 11 -15 17 -34z m-111 -283 c-45 -89 -53
-314 -17 -483 35 -163 65 -244 144 -383 21 -38 36 -71 34 -74 -7 -6 -96 158
-125 231 -33 80 -70 232 -84 344 -9 71 -9 116 0 198 10 92 40 194 57 194 3 0
-1 -12 -9 -27z m1291 -25 c-2 -13 -4 -5 -4 17 -1 22 1 32 4 23 2 -10 2 -28 0
-40z m-33 -50 c-2 -50 -5 -93 -7 -94 -1 -1 -13 -5 -26 -9 l-23 -7 7 93 c8 106
9 109 35 109 17 0 18 -8 14 -92z m-646 54 c0 -9 2 -29 6 -43 6 -21 2 -30 -19
-47 -22 -18 -25 -26 -20 -55 6 -28 3 -39 -14 -56 -12 -12 -25 -21 -31 -21 -14
0 -30 35 -30 67 0 24 7 33 35 46 19 9 35 24 35 33 0 24 -44 13 -138 -33 -101
-50 -185 -131 -205 -199 l-16 -49 0 41 c-2 88 67 204 139 234 18 7 30 20 30
30 0 10 3 25 6 34 5 14 9 14 34 1 48 -25 105 -19 142 14 35 31 47 32 46 3z
m99 -97 c99 -113 159 -155 219 -155 100 0 353 71 460 129 l55 30 14 -31 c19
-46 2 -88 -34 -88 -38 0 -44 -9 -26 -37 12 -17 13 -28 5 -42 -14 -27 -13 -47
5 -65 14 -13 13 -18 -5 -48 -24 -39 -26 -81 -5 -98 12 -10 24 -11 53 -2 32 10
39 9 59 -10 33 -31 29 -67 -16 -156 -57 -113 -90 -141 -259 -226 -189 -95
-403 -146 -611 -146 -103 0 -118 2 -128 19 -17 27 -59 32 -87 10 -30 -24 -31
-24 -66 3 -23 17 -33 19 -42 10 -19 -19 -45 -14 -52 11 -4 16 11 56 50 132 50
97 56 115 52 156 -4 37 -2 46 9 42 21 -8 16 8 -27 77 -70 113 -88 216 -51 289
23 45 85 102 140 131 48 24 61 25 61 5 0 -9 7 -29 15 -45 32 -61 103 -20 92
52 -4 26 1 39 21 61 24 25 25 31 15 58 -7 17 -8 29 -4 27 5 -2 44 -43 88 -93z
m115 53 c-6 -6 -15 -8 -19 -4 -4 4 -1 11 7 16 19 12 27 3 12 -12z m467 -10
c-1 -13 -5 -36 -9 -53 -7 -26 -8 -22 -9 23 0 29 3 52 9 52 6 0 9 -10 9 -22z
m-99 -13 c0 -8 -4 -15 -9 -15 -5 0 -11 7 -15 15 -3 9 0 15 9 15 8 0 15 -7 15
-15z m-330 -29 c0 -20 -19 -31 -32 -18 -6 6 -7 15 -4 21 10 16 36 13 36 -3z
m269 -15 c11 -20 5 -31 -16 -31 -7 0 -13 11 -13 25 0 29 15 33 29 6z m406
-102 c36 -32 90 -49 128 -38 27 7 27 7 27 -43 0 -30 -10 -75 -25 -113 l-26
-63 25 -36 c13 -20 27 -58 31 -85 9 -65 -10 -156 -38 -182 l-22 -20 -6 23 c-4
13 -16 43 -26 68 -19 43 -35 115 -51 229 -8 64 -26 73 -30 18 -3 -38 -4 -38
-23 -21 -18 16 -20 16 -37 1 -10 -10 -28 -17 -40 -17 -30 0 -29 38 1 91 21 38
21 41 5 53 -22 16 -23 44 -2 67 14 16 14 18 -5 24 -32 10 -26 35 8 35 25 0 31
5 36 30 8 34 10 34 70 -21z m737 -141 c-31 -49 -105 -117 -322 -295 -258 -211
-299 -238 -499 -330 -107 -48 -77 -26 60 44 158 82 243 141 459 319 202 166
274 234 297 277 8 16 17 26 20 23 3 -3 -4 -20 -15 -38z m-1968 -303 l15 -70
-46 -97 -46 -98 -64 130 c-35 72 -63 133 -63 135 0 3 9 5 20 5 23 0 93 33 129
62 14 10 28 15 32 11 5 -5 15 -40 23 -78z m1246 -12 c0 -10 14 -47 30 -82 17
-35 29 -65 28 -66 -20 -17 -151 -96 -154 -92 -3 2 0 16 6 31 5 15 10 41 10 58
0 31 59 166 73 167 4 1 7 -7 7 -16z m-250 -307 c0 -14 -4 -28 -10 -31 -6 -4
-10 7 -10 24 0 17 5 31 10 31 6 0 10 -11 10 -24z m-1234 -19 c-6 -18 -19 -45
-29 -61 -14 -20 -17 -38 -12 -65 5 -29 0 -49 -23 -96 -36 -73 -93 -209 -128
-307 -61 -170 -150 -326 -225 -394 -22 -20 -28 -21 -79 -11 -30 6 -56 12 -58
13 -4 2 138 234 261 426 55 86 147 265 147 288 0 11 4 20 8 20 5 0 26 37 47
82 21 45 52 95 69 110 17 15 31 28 32 28 1 0 -3 -15 -10 -33z m1173 -1 c26
-41 27 -59 2 -29 -23 28 -31 20 -31 -29 0 -24 -4 -37 -10 -33 -5 3 -10 33 -10
66 0 70 16 78 49 25z m-929 -35 c-8 -6 -14 -24 -13 -45 1 -20 -3 -33 -8 -30
-24 14 -3 84 26 84 5 0 3 -4 -5 -9z m150 -2 c13 -9 12 -10 -2 -5 -18 5 -22 -3
-19 -36 2 -19 -14 -24 -24 -8 -9 14 5 60 19 60 6 0 18 -5 26 -11z m694 -32
c13 -52 -10 -75 -100 -97 l-31 -7 -10 54 -10 53 61 19 c34 11 66 18 71 17 6
-1 14 -19 19 -39z m-244 4 c0 -5 -6 -14 -14 -20 -10 -9 -16 -8 -25 3 -10 11
-8 15 6 19 29 8 33 7 33 -2z m-130 -21 c-34 -11 -60 -11 -35 0 11 5 29 8 40 8
16 0 15 -2 -5 -8z m715 -42 c37 -29 55 -76 54 -140 0 -59 -13 -104 -22 -78
-32 97 -54 153 -73 193 -23 44 -23 47 -6 47 11 0 32 -10 47 -22z m-1050 -4
c26 -5 35 -11 31 -21 -3 -8 -6 -21 -6 -29 0 -9 -4 -13 -9 -10 -5 3 -8 -6 -8
-20 0 -14 -5 -35 -11 -47 -5 -12 -22 -61 -38 -109 l-28 -87 -43 -7 c-24 -3
-46 -4 -50 -1 -7 8 13 92 54 222 41 128 41 128 58 121 8 -3 30 -8 50 -12z
m973 -9 c15 -34 15 -35 -6 -35 -28 0 -43 20 -31 42 13 25 24 23 37 -7z m-1117
-1 c21 -4 39 -7 39 -8 0 -1 -13 -41 -29 -89 -16 -47 -37 -120 -46 -162 -17
-74 -17 -75 -49 -75 -50 0 -76 11 -76 31 0 31 70 291 82 306 6 8 18 11 25 8 8
-3 32 -8 54 -11z m-138 -12 c30 -5 32 -9 16 -49 -6 -15 -24 -82 -41 -148 -28
-113 -29 -120 -12 -132 16 -12 16 -13 1 -13 -28 0 -117 21 -121 29 -5 7 61
245 84 306 8 20 14 25 28 20 9 -4 29 -10 45 -13z m1127 -107 c16 -8 41 -15 55
-15 33 0 81 24 94 47 8 16 11 14 21 -12 7 -16 21 -59 31 -94 18 -63 18 -64 -2
-89 -20 -26 -59 -107 -59 -124 0 -5 18 -40 40 -77 34 -57 40 -75 39 -122 0
-30 -3 -47 -6 -39 -3 8 -15 39 -25 68 -13 34 -28 57 -43 64 -56 25 -192 -94
-315 -277 -254 -378 -428 -555 -683 -694 -58 -31 -62 -31 -190 -31 -218 0
-438 62 -569 160 -70 53 -248 245 -248 269 0 26 128 177 201 236 110 90 133
117 164 192 16 37 52 122 80 188 29 66 78 186 110 267 32 81 60 146 62 144 2
-1 -13 -61 -32 -131 -19 -71 -35 -134 -35 -141 0 -27 149 -56 175 -34 10 8 29
10 54 6 23 -3 42 -2 46 4 3 5 26 10 50 10 72 0 90 12 116 77 l22 58 96 2 c53
1 148 11 211 22 110 19 350 91 435 130 l40 18 18 -33 c9 -19 31 -40 47 -49z
m1087 -40 c12 -22 31 -78 43 -125 l21 -87 -22 -39 c-30 -53 -54 -78 -120 -129
-60 -47 -167 -105 -192 -105 -9 0 -28 11 -43 25 -15 14 -33 25 -40 25 -8 0
-34 41 -57 90 -24 50 -40 90 -35 90 22 0 147 56 196 87 73 46 146 116 177 170
15 24 32 42 38 40 7 -2 22 -21 34 -42z m-822 -835 c0 -162 4 -310 9 -327 l7
-32 -35 35 -35 35 9 107 c5 59 12 204 16 322 11 315 27 234 29 -140z m536 314
c26 -9 26 -9 10 -47 l-16 -38 -27 62 c-21 47 -23 58 -10 47 9 -9 29 -19 43
-24z m-730 -88 c-29 -64 -126 -232 -156 -270 -8 -11 -17 -17 -21 -14 -7 8 48
119 131 263 73 125 99 137 46 21z m129 -172 c-13 -226 -27 -404 -42 -517 -9
-75 -13 -87 -27 -80 -35 16 -88 7 -137 -25 -74 -47 -127 -62 -216 -62 l-79 0
44 58 c73 96 127 179 234 365 116 201 173 315 199 400 10 31 21 54 26 49 4 -4
4 -89 -2 -188z m-434 -321 c-22 -39 -45 -67 -51 -62 -3 3 9 27 26 53 32 51 51
58 25 9z"/>
<path d="M5385 8234 c-64 -14 -105 -28 -105 -36 0 -6 10 -7 23 -4 159 46 369
21 538 -65 73 -37 102 -33 37 5 -72 42 -166 75 -257 91 -78 14 -191 18 -236 9z"/>
<path d="M5030 8210 c-100 -17 -228 -78 -275 -130 -25 -28 -13 -25 39 10 98
67 217 104 329 103 70 0 89 10 36 21 -38 7 -69 6 -129 -4z"/>
<path d="M5730 8146 c0 -3 24 -18 53 -34 28 -15 70 -39 92 -52 l40 -24 -23 26
c-29 32 -162 101 -162 84z"/>
<path d="M7282 6640 c0 -14 2 -19 5 -12 2 6 2 18 0 25 -3 6 -5 1 -5 -13z"/>
<path d="M7297 6535 c3 -44 9 -109 14 -145 6 -51 7 -40 4 50 -3 63 -9 129 -14
145 -7 21 -8 7 -4 -50z"/>
<path d="M5165 5370 c-216 -33 -262 -70 -198 -159 37 -52 88 -83 143 -87 41
-3 42 -3 10 5 -37 8 -80 31 -80 43 0 3 26 16 58 28 86 33 362 41 362 11 0 -26
-160 -80 -241 -82 -40 0 -42 -1 -21 -12 18 -8 42 -8 94 1 126 22 206 72 249
155 24 45 15 69 -33 87 -42 15 -264 22 -343 10z m255 -19 c0 -13 -245 -50
-345 -52 -86 -1 -97 0 -91 9 7 11 99 32 184 42 96 11 252 12 252 1z"/>
<path d="M6726 5704 c-19 -18 -20 -38 -6 -65 20 -37 70 -13 70 34 0 8 -11 22
-24 31 -23 14 -26 14 -40 0z"/>
<path d="M3623 5905 c0 -38 2 -53 4 -32 2 20 2 52 0 70 -2 17 -4 1 -4 -38z"/>
<path d="M4780 4150 c-14 -4 -54 -9 -90 -9 -52 -1 -61 -4 -46 -13 24 -14 148
-3 184 17 l27 14 -25 0 c-14 -1 -36 -5 -50 -9z"/>
<path d="M5050 4131 c0 -21 74 -93 121 -117 57 -29 115 -39 166 -29 32 6 35 9
18 15 -11 5 -41 9 -67 9 -63 1 -143 38 -195 91 -24 23 -43 37 -43 31z"/>
<path d="M2067 7530 c-69 -61 -108 -150 -115 -260 -3 -55 0 -101 8 -124 11
-36 11 -38 -28 -78 -54 -55 -124 -183 -164 -298 -30 -88 -32 -104 -32 -225 0
-110 3 -138 22 -184 21 -54 21 -54 2 -79 -62 -78 23 -290 133 -331 40 -16 93
-14 128 4 29 16 31 15 71 -19 47 -40 173 -93 259 -108 48 -8 71 -6 140 11 166
42 321 134 448 266 156 162 251 353 251 502 0 43 4 52 29 71 16 12 42 47 57
79 51 103 32 248 -38 297 -51 36 -104 30 -155 -17 -20 -18 -23 -18 -23 -4 0
29 -38 100 -82 154 -155 187 -377 254 -629 189 -52 -14 -95 -23 -96 -22 -1 1
-6 35 -9 75 -9 96 -34 135 -90 139 -35 3 -46 -2 -87 -38z m114 -16 c7 -8 18
-58 25 -110 13 -99 24 -124 56 -124 14 0 18 5 13 19 -5 16 6 21 87 42 109 27
229 30 304 7 113 -35 223 -109 293 -198 39 -49 99 -185 87 -197 -3 -4 -19 6
-34 20 -16 15 -31 25 -34 22 -3 -3 3 -40 13 -83 21 -89 24 -163 7 -180 -16
-16 -53 -15 -88 3 -39 20 -97 95 -141 179 -35 68 -55 80 -80 50 -30 -37 -92
-58 -173 -60 -89 -2 -94 -6 -95 -76 -2 -111 -84 -248 -148 -248 -62 0 -113 89
-113 197 0 28 -5 64 -11 80 -15 41 -26 16 -39 -93 -6 -49 -20 -108 -31 -132
-20 -41 -74 -92 -97 -92 -24 0 -29 -33 -16 -103 16 -88 18 -196 4 -232 -28
-73 -142 49 -182 194 -24 88 -24 216 2 314 26 103 98 251 160 328 27 34 50 65
50 69 0 3 -5 33 -11 65 -20 108 18 239 91 316 40 42 78 51 101 23z m1037 -506
c66 -71 54 -194 -29 -297 -26 -33 -33 -52 -39 -113 -8 -72 -28 -144 -57 -203
-92 -183 -246 -353 -381 -422 -148 -76 -265 -108 -349 -97 -73 11 -194 56
-252 95 -51 34 -62 38 -86 29 -60 -23 -138 -7 -177 36 -36 41 -68 121 -68 173
0 57 10 64 35 24 24 -39 74 -82 103 -90 14 -3 38 1 58 10 26 13 34 24 39 54
13 76 15 78 36 43 20 -33 87 -69 128 -70 41 0 111 40 136 79 49 74 38 171 -26
237 l-31 32 32 7 c82 18 151 128 175 281 l6 41 69 5 c48 4 84 13 120 32 29 15
53 26 55 24 1 -2 12 -22 24 -46 21 -42 21 -43 2 -33 -57 31 -165 -17 -208 -94
-65 -115 19 -275 145 -275 115 0 201 121 162 226 -14 35 -5 42 23 17 54 -48
135 -54 173 -12 16 18 19 37 19 111 0 75 3 91 18 99 11 7 17 22 17 49 0 35 19
70 21 38 0 -7 4 -3 9 10 7 17 17 22 43 22 22 0 41 -8 55 -22z m-485 -218 c57
-45 87 -167 55 -220 -15 -25 -78 -60 -109 -60 -67 0 -129 72 -129 149 0 68 34
118 95 139 44 15 60 14 88 -8z m-565 -190 c25 -40 28 -49 14 -48 -61 5 -92 -4
-121 -33 -17 -17 -35 -45 -39 -62 l-8 -32 -7 35 c-6 27 -4 36 10 43 32 17 102
96 109 122 3 14 7 25 9 25 1 0 16 -22 33 -50z m82 -128 c97 -97 56 -242 -69
-242 -57 0 -87 20 -112 74 -22 50 -24 104 -4 151 16 40 42 53 104 54 37 1 49
-4 81 -37z"/>
<path d="M2412 6478 c-21 -21 -15 -40 11 -33 30 10 41 21 33 34 -9 14 -29 14
-44 -1z"/>
<path d="M2429 6421 c-17 -17 -29 -40 -29 -55 0 -34 11 -32 35 7 18 28 27 32
68 35 48 3 56 9 35 30 -23 23 -77 14 -109 -17z"/>
<path d="M2492 6337 c-40 -42 -25 -154 27 -206 46 -46 121 -11 135 63 13 70
-52 166 -113 166 -16 0 -37 -10 -49 -23z m87 -51 c12 -13 25 -41 28 -63 4 -31
1 -42 -17 -58 l-22 -20 -28 31 c-68 77 -30 184 39 110z"/>
<path d="M2646 6704 c-35 -35 -10 -109 34 -102 33 4 48 46 30 87 -14 34 -39
40 -64 15z"/>
<path d="M2138 6405 c-23 -51 20 -106 57 -75 19 16 19 50 -1 78 -20 29 -42 28
-56 -3z"/>
<path d="M7843 6738 c-19 -24 -151 -344 -193 -468 -55 -161 -61 -225 -28 -307
14 -34 39 -84 57 -111 41 -65 109 -97 399 -192 189 -61 227 -71 248 -61 25 11
123 201 214 415 55 129 55 160 1 297 -78 196 -82 199 -281 278 -73 29 -182 77
-242 107 -111 54 -157 65 -175 42z m195 -97 c75 -39 180 -86 232 -106 138 -53
155 -65 194 -148 19 -40 41 -92 49 -117 9 -25 19 -54 23 -65 6 -16 5 -18 -7
-9 -8 6 -66 29 -129 52 -198 72 -423 167 -430 183 -4 7 -24 68 -45 134 -21 66
-40 126 -42 133 -9 22 15 13 155 -57z m-137 -81 l42 -130 -22 -76 c-12 -42
-58 -165 -102 -273 -45 -108 -83 -204 -86 -214 -5 -15 -9 -13 -29 15 -36 48
-64 132 -64 189 0 28 11 85 25 127 24 72 188 492 192 492 1 0 21 -58 44 -130z
m274 -253 c99 -40 222 -89 273 -108 l94 -34 -5 -35 c-5 -40 -150 -371 -193
-443 -16 -26 -36 -47 -46 -47 -9 0 -54 13 -100 29 -46 16 -132 43 -192 61
-134 38 -256 88 -256 104 0 6 16 50 36 96 65 154 131 324 154 393 17 54 26 68
39 63 9 -2 97 -38 196 -79z"/>
<path d="M2385 5441 c-27 -53 -58 -155 -106 -344 l-30 -119 24 -51 c26 -56
123 -177 160 -201 12 -8 116 -38 230 -66 183 -45 211 -49 234 -38 22 11 34 36
73 145 45 127 83 253 95 320 4 21 0 47 -14 78 -31 70 -100 170 -130 187 -14 9
-91 30 -171 48 -184 41 -292 70 -304 81 -20 19 -36 8 -61 -40z m106 -17 c24
-8 124 -35 222 -59 98 -24 181 -45 183 -48 3 -2 -14 -62 -36 -133 -23 -71 -51
-173 -62 -227 -21 -97 -21 -98 -47 -92 -14 4 -78 17 -142 31 -64 13 -159 35
-212 49 -52 14 -98 25 -101 25 -12 0 -6 33 29 164 56 213 90 306 110 306 7 0
32 -7 56 -16z m503 -231 c24 -41 36 -74 36 -99 0 -37 -118 -404 -130 -404 -3
0 -27 39 -53 87 l-48 87 16 71 c13 55 76 280 101 354 5 17 28 -11 78 -96z
m-553 -286 c57 -14 155 -36 217 -49 63 -12 117 -25 121 -28 4 -3 27 -38 51
-78 23 -40 46 -75 51 -78 16 -9 10 -24 -10 -24 -28 0 -383 90 -406 104 -36 19
-155 159 -155 181 0 4 6 5 13 2 8 -3 61 -16 118 -30z"/>
<path d="M7199 5333 c0 -5 0 -73 1 -153 2 -185 18 -224 105 -246 l27 -7 -43
-43 c-24 -24 -46 -44 -50 -44 -4 0 -22 33 -41 73 -19 39 -49 87 -66 105 -111
118 -207 -107 -217 -508 -3 -127 -9 -182 -25 -240 -42 -154 -33 -310 25 -437
14 -31 24 -57 23 -58 -2 -2 -28 -10 -59 -19 -31 -9 -62 -22 -68 -30 -25 -30
15 -66 111 -99 16 -5 16 -9 1 -46 -13 -34 -14 -43 -2 -57 13 -16 66 -15 127 2
17 5 22 2 22 -11 0 -9 13 -29 29 -45 35 -36 65 -31 88 14 8 17 17 32 18 34 1
1 40 -16 86 -37 115 -54 225 -89 341 -108 90 -15 96 -17 85 -35 -10 -16 -8
-23 13 -40 19 -16 35 -19 71 -16 44 5 46 4 55 -26 14 -47 45 -46 84 3 l32 39
46 -24 c25 -13 62 -24 83 -24 34 0 39 4 45 27 6 21 0 42 -22 82 l-30 55 60 41
c96 65 184 209 225 369 12 44 30 89 40 100 21 23 113 176 178 296 82 152 115
295 79 343 -36 47 -128 26 -220 -51 -28 -23 -51 -40 -52 -39 0 1 -4 21 -8 45
-6 41 -5 42 21 42 106 0 189 72 247 215 35 86 32 89 -90 82 -99 -5 -129 -13
-226 -65 -13 -7 -14 34 0 50 20 24 26 90 12 133 -17 50 -67 105 -117 127 -57
25 -149 31 -189 12 -29 -14 -34 -13 -68 7 -20 11 -36 27 -36 34 0 22 -50 75
-90 95 -54 28 -111 34 -172 20 -117 -28 -173 -76 -173 -148 0 -35 -5 -51 -20
-64 -11 -10 -23 -17 -27 -18 -3 0 -14 24 -23 54 -9 29 -33 75 -54 102 -56 75
-189 169 -192 137z m71 -98 c-7 -8 -16 -15 -21 -15 -13 0 -11 24 3 38 18 18
35 -3 18 -23z m30 -2 c0 -3 -8 -16 -17 -27 -15 -19 -15 -19 7 1 l23 22 43 -55
c46 -59 67 -110 62 -146 -5 -40 -21 -25 -40 37 -20 69 -48 135 -57 135 -3 -1
-22 -14 -41 -31 -34 -29 -54 -24 -28 8 9 12 9 15 1 9 -20 -12 -15 5 9 31 21
22 38 30 38 16z m438 -5 c36 -36 -10 -109 -70 -111 -40 -1 -84 18 -92 39 -9
23 84 81 135 83 8 1 20 -4 27 -11z m450 -149 c49 -18 14 -109 -43 -109 -32 0
-95 56 -95 85 0 40 63 51 138 24z m442 -272 c0 -7 -6 -21 -13 -31 -12 -16 -14
-16 -25 9 -7 15 -15 25 -18 22 -3 -3 2 -19 10 -36 18 -34 19 -41 8 -41 -4 0
-18 20 -30 45 l-22 45 45 0 c30 0 45 -4 45 -13z m-141 -11 c-20 -7 -50 -22
-67 -34 -16 -12 -38 -22 -48 -22 -17 0 -17 2 2 21 24 23 87 48 124 48 21 0 19
-2 -11 -13z m-1009 -208 c32 -34 20 -98 -18 -98 -52 0 -80 63 -45 102 21 24
38 23 63 -4z m570 -245 c0 -43 -70 -64 -85 -26 -9 25 4 52 33 67 23 12 28 12
39 -3 7 -9 13 -26 13 -38z m-495 -156 c29 -45 65 -56 123 -34 26 10 52 19 57
20 6 1 11 -24 13 -55 3 -51 0 -61 -23 -84 -29 -29 -42 -29 -144 3 -53 16 -131
77 -131 101 0 16 60 82 74 82 6 -1 20 -15 31 -33z m-135 -47 c0 -40 53 -98
115 -125 69 -31 149 -47 177 -36 29 11 64 49 73 80 l7 23 35 -33 c47 -46 114
-149 162 -250 40 -82 65 -192 73 -309 l3 -45 -52 -17 c-227 -76 -561 -13 -832
155 -114 72 -244 250 -258 355 -5 39 -5 40 53 79 66 45 147 88 208 110 33 12
164 37 224 42 7 1 12 -11 12 -29z"/>
<path d="M2874 4249 c-110 -72 -165 -116 -186 -147 -24 -35 -52 -128 -84 -277
-43 -202 -53 -272 -40 -297 15 -32 82 -61 211 -92 305 -73 331 -78 370 -71 51
8 165 64 230 113 48 37 51 41 78 137 66 233 117 452 117 497 0 44 -3 50 -32
68 -51 31 -459 119 -554 120 -21 0 -57 -17 -110 -51z m209 -8 c23 -5 74 -15
112 -21 86 -15 146 -30 163 -43 30 -23 -1 -106 -50 -133 -32 -18 -61 -17 -185
7 -199 37 -333 73 -333 89 0 18 19 19 66 6 66 -20 231 -53 330 -67 86 -12 114
-6 141 30 33 42 11 53 -161 81 -148 24 -176 25 -176 5 0 -19 32 -32 133 -53
65 -14 81 -14 99 -3 27 17 48 -1 31 -27 -28 -44 -303 16 -303 66 0 30 38 72
66 72 14 0 44 -4 67 -9z m447 -197 c0 -19 -56 -74 -76 -74 -31 0 -13 39 29 64
50 31 47 30 47 10z m-706 -105 c49 -23 44 -39 -11 -38 -63 1 -94 10 -107 32
-23 37 48 40 118 6z m526 -74 c-18 -21 -70 -48 -78 -40 -12 12 23 59 48 66 32
8 47 -5 30 -26z m-170 9 c37 -8 74 -39 65 -54 -15 -25 -145 14 -145 44 0 20
13 28 35 21 11 -3 31 -8 45 -11z m300 -15 c0 -35 -63 -86 -88 -70 -19 12 -5
35 36 59 42 24 52 27 52 11z m-490 -52 c32 -13 55 -28 55 -37 0 -12 -12 -14
-55 -12 -84 5 -120 19 -120 48 0 21 5 24 33 24 17 0 57 -11 87 -23z m-215 -79
c104 -39 45 -69 -76 -37 -36 9 -55 31 -43 50 9 15 60 10 119 -13z m555 -28 c0
-11 -84 -70 -99 -70 -13 0 -13 2 -1 35 5 14 20 30 32 35 31 12 68 12 68 0z
m90 -48 c0 -25 -45 -66 -64 -59 -26 10 -18 36 17 57 40 25 47 25 47 2z m-479
-23 c105 -34 130 -66 48 -61 -46 3 -108 19 -122 32 -12 11 4 40 23 40 9 0 32
-5 51 -11z m339 -92 c0 -15 -88 -82 -97 -74 -15 15 16 61 48 73 45 16 49 16
49 1z"/>
<path d="M7195 2910 c-28 -4 -61 -14 -73 -21 -22 -14 -80 -126 -174 -337 -49
-110 -50 -115 -36 -150 18 -47 86 -100 203 -157 152 -74 176 -79 338 -71 151
8 184 17 204 56 45 89 193 421 193 432 0 34 -41 65 -158 120 -68 33 -154 77
-189 99 -64 39 -66 39 -162 38 -53 -1 -119 -5 -146 -9z m129 -51 c28 -22 34
-39 14 -39 -26 1 -99 40 -93 50 10 17 51 11 79 -11z m161 -15 c18 -14 24 -24
15 -24 -22 1 -100 38 -100 48 0 16 55 1 85 -24z m22 -56 c65 -45 43 -66 -28
-26 -40 22 -52 48 -22 48 9 0 32 -10 50 -22z m-327 -17 c0 -4 -29 -69 -64
-142 -84 -179 -83 -171 -46 -203 44 -37 160 -86 204 -86 28 0 57 41 103 145
50 113 50 111 4 154 -61 56 -105 78 -125 62 -21 -17 -96 -168 -96 -192 0 -26
79 -67 92 -47 16 23 48 92 48 106 0 21 -26 13 -40 -13 -15 -27 -30 -33 -30
-11 0 25 22 76 33 77 44 5 81 -25 72 -58 -11 -46 -58 -134 -76 -144 -23 -12
-94 16 -123 50 -17 19 -18 26 -7 61 15 51 77 168 104 198 28 30 47 28 110 -12
81 -52 110 -91 104 -139 -6 -45 -76 -196 -114 -246 -23 -30 -29 -33 -67 -29
-58 7 -207 79 -235 114 -29 37 -26 47 59 222 61 123 90 166 90 133z m527 -51
c32 -11 64 -26 72 -34 12 -13 10 -16 -14 -22 -31 -8 -99 22 -131 57 -16 18
-16 19 0 19 9 0 42 -9 73 -20z m-110 -34 c41 -26 42 -36 1 -36 -31 0 -98 41
-98 61 0 15 58 0 97 -25z m167 -54 c7 -11 -42 -92 -56 -92 -6 0 -8 10 -4 23 3
12 6 27 6 34 0 14 27 43 40 43 5 0 11 -4 14 -8z m-140 -34 c-3 -13 -23 -48
-43 -77 -58 -88 -75 -56 -25 47 21 42 30 52 50 52 22 0 24 -3 18 -22z m-4
-160 c0 -27 -56 -128 -70 -128 -14 0 -12 21 5 71 24 68 65 104 65 57z m-154
-182 c-10 -25 -21 -36 -35 -36 -12 0 -21 3 -21 8 0 11 31 55 49 70 22 18 25 1
7 -42z m134 -7 c-16 -28 -32 -24 -18 6 6 13 15 22 19 19 5 -3 4 -14 -1 -25z"/>
<path d="M596 1999 c-47 -37 -48 -49 -13 -140 l32 -84 0 -245 c0 -194 -4 -270
-19 -365 -26 -162 -26 -167 5 -178 18 -7 34 -6 54 4 48 23 67 60 75 142 9 92
50 186 112 253 62 68 124 88 150 50 29 -42 -17 -104 -94 -127 l-53 -15 1 -46
c2 -52 40 -153 75 -196 47 -58 120 -83 183 -62 44 14 68 51 69 109 2 43 0 46
-22 43 -44 -4 -99 18 -130 53 -39 44 -39 60 -1 80 47 24 99 75 121 116 53 106
-12 219 -126 219 -97 0 -206 -91 -280 -233 -35 -67 -37 -69 -31 -32 30 183 37
254 37 382 1 155 -5 211 -27 254 -22 45 -74 52 -118 18z"/>
<path d="M2592 1999 c-43 -28 -49 -58 -24 -117 11 -26 25 -74 31 -106 16 -85
13 -349 -4 -496 -19 -162 -19 -240 0 -267 33 -47 123 -37 170 18 34 42 32 58
-16 99 -36 31 -42 42 -46 85 -3 28 5 123 16 213 26 201 29 443 6 520 -22 74
-68 92 -133 51z"/>
<path d="M3951 1994 c-38 -32 -39 -57 -6 -141 33 -81 49 -253 40 -413 -5 -105
-39 -371 -51 -411 -2 -9 3 -25 12 -34 24 -23 71 -12 108 24 25 26 30 39 36
108 5 65 14 92 50 161 62 121 139 183 198 161 17 -6 22 -17 22 -41 -1 -53 -42
-90 -113 -102 -21 -4 -41 -14 -44 -22 -8 -21 21 -124 52 -183 49 -98 137 -141
219 -107 42 17 69 68 64 119 -3 29 -5 31 -50 33 -26 1 -59 9 -73 18 -24 16
-65 71 -65 88 0 4 17 16 38 27 46 24 107 86 121 124 28 74 1 161 -58 192 -110
56 -253 -31 -352 -215 -27 -51 -38 -65 -35 -45 32 178 39 248 40 400 0 110 -4
185 -12 212 -22 74 -85 95 -141 47z"/>
<path d="M6609 1997 c-19 -12 -35 -33 -37 -45 -2 -12 9 -57 24 -99 24 -69 27
-97 32 -243 3 -118 0 -203 -12 -297 -20 -169 -21 -272 -1 -300 42 -60 166 -24
190 55 5 19 -2 31 -41 67 l-47 44 6 98 c3 54 13 152 21 218 18 138 21 348 6
426 -18 94 -72 123 -141 76z"/>
<path d="M7451 1994 c-38 -32 -39 -57 -6 -141 33 -81 49 -253 40 -413 -5 -105
-39 -371 -51 -411 -2 -9 3 -25 12 -34 24 -23 71 -12 108 24 25 26 30 39 36
108 5 65 14 92 50 161 62 121 139 183 198 161 17 -6 22 -17 22 -41 -1 -53 -42
-90 -113 -102 -21 -4 -41 -14 -44 -22 -8 -21 21 -124 52 -183 49 -98 137 -141
219 -107 42 17 69 68 64 119 -3 29 -5 31 -50 33 -26 1 -59 9 -73 18 -24 16
-65 71 -65 88 0 4 17 16 38 27 46 24 107 86 121 124 28 74 1 161 -58 192 -110
56 -253 -31 -352 -215 -27 -51 -38 -65 -35 -45 32 178 39 248 40 400 0 110 -4
185 -12 212 -22 74 -85 95 -141 47z"/>
<path d="M8210 1923 c-47 -24 -70 -84 -49 -128 32 -67 123 -70 166 -6 29 43
29 83 1 115 -31 35 -74 41 -118 19z"/>
<path d="M1542 1594 c-159 -42 -285 -195 -299 -361 -7 -90 9 -148 56 -194 93
-93 252 -67 347 58 l31 41 17 -59 c19 -69 49 -94 112 -94 50 0 80 23 93 72 13
45 7 57 -34 72 -57 20 -83 99 -70 211 6 54 9 60 30 60 26 0 45 40 45 95 0 91
-170 142 -328 99z m113 -148 c38 -11 40 -14 37 -46 -9 -101 -61 -201 -125
-240 -40 -25 -123 -27 -156 -4 -50 35 -64 119 -32 190 42 93 160 135 276 100z"/>
<path d="M2203 1596 c-165 -54 -272 -239 -243 -421 20 -121 100 -189 225 -189
102 -1 166 25 237 93 41 41 58 64 58 83 0 39 -27 42 -79 9 -95 -61 -203 -65
-266 -10 -30 27 -64 93 -53 105 3 2 22 -3 44 -12 57 -24 159 -21 222 6 155 67
190 249 63 324 -42 24 -151 31 -208 12z m115 -142 c59 -41 -6 -124 -98 -124
-55 0 -120 21 -120 39 0 23 39 68 75 86 39 19 114 19 143 -1z"/>
<path d="M3142 1594 c-159 -42 -285 -195 -299 -361 -7 -90 9 -148 56 -194 93
-93 252 -67 347 58 l31 41 17 -59 c19 -69 49 -94 112 -94 50 0 80 23 93 72 13
45 7 57 -34 72 -57 20 -83 99 -70 211 6 54 9 60 30 60 26 0 45 40 45 95 0 91
-170 142 -328 99z m113 -148 c38 -11 40 -14 37 -46 -9 -101 -61 -201 -125
-240 -40 -25 -123 -27 -156 -4 -50 35 -64 119 -32 190 42 93 160 135 276 100z"/>
<path d="M4795 1593 c-69 -25 -142 -69 -161 -98 -9 -14 -14 -40 -12 -67 3 -40
5 -43 31 -43 15 1 27 0 27 -1 0 -1 -10 -23 -22 -50 -28 -62 -31 -192 -6 -240
59 -109 209 -143 345 -78 106 51 174 163 181 299 10 190 -72 285 -253 292 -58
3 -93 -1 -130 -14z m216 -164 c87 -44 93 -182 10 -252 -58 -49 -134 -56 -204
-20 -69 35 -88 138 -41 231 22 45 30 52 62 58 20 3 42 7 47 9 20 6 91 -8 126
-26z"/>
<path d="M5251 1596 c-32 -18 -50 -53 -51 -99 0 -34 3 -38 30 -44 62 -12 89
-78 120 -288 17 -111 23 -133 45 -155 35 -35 105 -34 168 3 128 76 247 303
247 473 0 80 -12 112 -46 120 -58 15 -154 -42 -154 -91 0 -13 11 -37 25 -53
43 -51 50 -136 17 -198 -20 -37 -90 -93 -133 -105 -61 -19 -69 -3 -69 132 0
123 -13 197 -43 252 -34 62 -100 84 -156 53z"/>
<path d="M6152 1594 c-159 -42 -285 -195 -299 -361 -7 -90 9 -148 56 -194 93
-93 252 -67 347 58 l31 41 17 -59 c19 -69 49 -94 112 -94 50 0 80 23 93 72 13
45 7 57 -34 72 -57 20 -83 99 -70 211 6 54 9 60 30 60 26 0 45 40 45 95 0 91
-170 142 -328 99z m113 -148 c38 -11 40 -14 37 -46 -9 -101 -61 -201 -125
-240 -40 -25 -123 -27 -156 -4 -50 35 -64 119 -32 190 42 93 160 135 276 100z"/>
<path d="M7050 1595 c-96 -30 -160 -113 -160 -207 0 -93 30 -116 196 -148 121
-24 142 -36 125 -68 -25 -48 -162 -54 -259 -12 -57 25 -78 22 -91 -13 -20 -52
17 -113 89 -144 47 -21 174 -21 221 -1 92 40 152 127 153 219 1 91 -35 117
-199 145 -104 18 -125 27 -125 54 0 54 137 68 200 22 40 -30 63 -28 104 12 41
38 48 82 17 110 -47 43 -183 58 -271 31z"/>
<path d="M8182 1593 c-37 -18 -72 -58 -72 -82 0 -9 19 -32 42 -53 41 -35 43
-38 42 -95 0 -32 -11 -102 -23 -156 -38 -157 -16 -222 73 -222 53 0 93 20 112
57 21 41 17 62 -17 82 -50 29 -53 54 -29 209 24 152 21 210 -11 251 -24 31
-67 34 -117 9z"/>
<path d="M8720 1588 c-127 -45 -230 -151 -266 -276 -22 -76 -15 -196 14 -243
24 -39 79 -74 134 -84 84 -16 199 41 249 122 l23 37 12 -47 c17 -65 37 -93 79
-107 69 -23 135 23 135 94 0 20 -9 30 -37 43 -45 21 -65 58 -71 130 -7 80 5
143 27 143 26 0 40 21 47 71 11 84 -52 128 -196 135 -71 4 -96 1 -150 -18z
m121 -139 l52 -11 -6 -56 c-8 -72 -58 -174 -103 -209 -41 -30 -127 -43 -163
-23 -54 29 -77 123 -47 193 28 65 107 116 183 117 18 0 55 -5 84 -11z"/>
</g>
</svg>
