<?xml version="1.0" standalone="no"?>
<!DOCTYPE svg PUBLIC "-//W3C//DTD SVG 20010904//EN"
 "http://www.w3.org/TR/2001/REC-SVG-20010904/DTD/svg10.dtd">
<svg version="1.0" xmlns="http://www.w3.org/2000/svg"
 width="300.000000pt" height="300.000000pt" viewBox="0 0 300.000000 300.000000"
 preserveAspectRatio="xMidYMid meet">
<metadata>
Created by potrace 1.10, written by Peter Selinger 2001-2011
</metadata>
<g transform="translate(0.000000,300.000000) scale(0.100000,-0.100000)"
fill="#000000" stroke="none">
<path d="M1507 2582 c-19 -21 -22 -53 -6 -69 7 -7 -3 -14 -37 -22 -56 -14
-104 -38 -162 -81 -64 -46 -45 -47 24 -2 102 68 139 77 309 77 133 0 156 -3
208 -24 32 -12 77 -37 100 -55 46 -35 119 -125 111 -138 -10 -15 -23 -8 -59
31 -44 47 -109 77 -190 86 -33 3 -84 18 -113 32 -45 22 -62 25 -121 21 -48 -4
-80 -12 -106 -28 -20 -13 -58 -24 -86 -26 -27 -2 -67 -10 -89 -18 -22 -7 -37
-10 -34 -5 3 5 0 9 -5 9 -6 0 -16 -9 -23 -20 -7 -11 -22 -20 -34 -20 -11 0
-29 -9 -39 -20 -17 -19 -20 -19 -28 -4 -16 28 -88 54 -152 54 -86 0 -90 -5
-69 -76 31 -108 61 -147 126 -165 43 -11 42 -6 27 -102 -19 -120 -67 -197
-105 -166 -11 9 -14 8 -14 -4 0 -9 9 -22 21 -30 19 -14 18 -15 -23 -28 -39
-13 -43 -17 -40 -44 6 -57 19 -68 69 -60 47 7 49 3 16 -37 -10 -11 -11 -18 -3
-23 8 -5 8 -11 1 -19 -16 -19 16 -107 40 -113 11 -3 19 -14 19 -24 0 -11 10
-24 23 -30 37 -18 88 -100 108 -174 23 -83 23 -81 21 -126 -2 -33 -9 -42 -76
-93 -41 -31 -91 -75 -112 -98 -35 -39 -36 -43 -30 -92 6 -55 33 -143 46 -151
4 -2 24 29 44 70 28 57 42 75 58 75 18 0 17 -3 -11 -35 -17 -20 -31 -40 -31
-46 0 -22 99 -108 138 -120 23 -6 54 -25 69 -41 27 -29 28 -29 10 -59 -9 -17
-15 -35 -12 -39 10 -16 96 -23 133 -12 21 6 59 32 86 57 42 38 56 45 91 45 22
0 45 4 50 9 6 5 21 11 35 13 20 2 26 10 30 37 9 60 29 13 42 -98 7 -55 16
-101 20 -101 16 0 131 116 155 157 29 50 27 79 -12 176 -21 53 -21 57 -5 57
11 0 20 -10 24 -25 4 -16 16 -27 33 -31 57 -15 85 39 58 114 -9 26 -18 64 -20
85 -5 42 -21 77 -35 77 -6 0 -10 11 -10 25 0 14 -4 25 -9 25 -5 0 -11 14 -15
32 -5 27 -2 35 26 58 l32 27 -17 62 c-17 61 -17 62 6 95 15 22 22 48 22 75 0
24 5 43 12 45 7 3 13 17 13 30 0 14 12 38 26 53 16 18 24 22 20 11 -3 -10 -1
-18 4 -18 5 0 17 22 27 49 12 35 24 52 39 55 13 4 33 21 46 39 21 30 23 42 23
170 0 87 4 137 10 137 24 0 76 62 110 131 21 41 41 76 46 77 5 2 9 9 9 16 0
26 -186 36 -229 12 -36 -20 -87 2 -126 55 -76 105 -163 153 -313 171 -94 11
-99 13 -144 55 -26 24 -49 43 -51 43 -2 0 -11 -8 -20 -18z m68 -42 l39 -40
-37 0 c-48 0 -82 31 -67 60 15 27 20 26 65 -20z m108 -137 l38 -16 -33 -15
c-35 -15 -148 -20 -169 -7 -7 5 -26 11 -43 15 l-31 7 30 13 c72 31 139 32 208
3z m-590 -89 c20 -13 37 -26 37 -28 0 -3 -31 -68 -35 -74 -1 -1 -14 3 -29 9
-29 14 -37 42 -8 33 14 -5 14 -3 -2 10 -13 11 -23 13 -30 6 -15 -15 10 -59 39
-66 21 -5 25 -11 21 -28 -3 -11 -6 -27 -6 -35 0 -17 -53 -8 -88 15 -42 27 -97
181 -65 181 8 0 11 -7 9 -14 -3 -8 -1 -11 4 -8 6 3 10 13 10 21 0 22 97 7 143
-22z m395 20 c67 -47 -42 -142 -165 -144 -139 -1 -155 95 -23 140 68 24 157
26 188 4z m145 8 c3 -4 -17 -7 -44 -7 -27 0 -49 3 -49 8 0 9 87 9 93 -1z m238
-7 c51 -18 119 -69 119 -90 0 -8 -11 -22 -25 -31 -54 -35 -276 1 -267 44 1 8
-2 11 -7 8 -5 -3 -14 1 -21 9 -45 55 95 96 201 60z m-256 -16 c10 -15 4 -17
-32 -12 -18 3 -30 9 -27 14 7 13 51 11 59 -2z m-421 -11 c-5 -7 -18 -21 -30
-30 -15 -12 -20 -25 -17 -42 3 -13 -1 -57 -8 -97 -12 -73 -13 -90 -17 -241 -1
-44 -6 -78 -12 -78 -13 0 -13 86 1 150 6 28 9 54 6 56 -8 9 -31 -106 -31 -158
-1 -38 -5 -48 -18 -48 -9 0 -25 -3 -35 -7 -17 -6 -16 -4 2 18 l20 24 -21 -17
c-11 -10 -31 -18 -45 -18 l-24 1 25 13 c43 24 68 84 89 217 24 148 44 209 78
243 27 27 50 35 37 14z m407 -18 c5 0 10 -21 11 -47 1 -45 2 -45 5 -10 l4 38
19 -23 c30 -39 113 -78 183 -86 75 -9 110 -29 139 -78 11 -19 23 -33 25 -30 8
8 -16 43 -52 75 -20 17 -30 31 -23 31 30 0 75 -40 103 -91 27 -49 30 -62 30
-144 -1 -115 -21 -175 -91 -267 -53 -70 -61 -88 -47 -102 11 -11 13 -75 3 -81
-5 -3 -7 -20 -3 -37 5 -25 1 -34 -18 -49 -27 -21 -69 -25 -86 -8 -8 8 -17 7
-34 -1 -20 -11 -25 -10 -45 14 -24 27 -23 56 2 56 8 0 14 7 14 15 0 8 25 27
55 41 31 15 60 34 67 41 9 11 14 11 29 -3 11 -10 19 -12 19 -6 0 6 -5 14 -11
18 -6 3 -9 19 -5 35 5 29 -13 58 -37 60 -7 0 -2 4 10 9 59 24 77 152 37 258
-14 37 -30 71 -36 77 -8 7 -9 4 -3 -10 25 -68 37 -107 33 -111 -14 -13 -59 20
-78 56 -11 22 -23 40 -25 40 -3 0 4 -18 15 -40 11 -21 20 -41 20 -43 0 -2 -14
-1 -31 1 -22 3 -27 7 -18 13 10 6 8 9 -7 9 -21 0 -74 57 -74 78 0 15 27 22 93
23 l62 1 -35 16 c-19 9 -56 16 -81 16 -41 0 -46 2 -41 19 3 14 1 18 -6 13 -7
-4 -12 -16 -12 -28 0 -11 -9 -31 -20 -46 -11 -14 -17 -28 -12 -31 15 -10 -36
-105 -78 -146 l-39 -38 19 39 c10 21 21 55 24 74 5 28 2 25 -13 -16 -22 -59
-49 -114 -57 -114 -3 0 -2 10 1 21 5 16 3 20 -6 17 -8 -3 -13 -13 -11 -23 3
-17 2 -17 -13 -1 -9 9 -30 23 -46 31 -32 17 -40 31 -11 21 15 -5 15 -5 1 7 -9
7 -20 31 -24 55 -6 39 -5 42 17 42 l23 1 -24 19 c-22 19 -23 22 -11 67 8 25
29 66 47 91 19 24 29 42 21 40 -22 -7 -78 -98 -84 -139 -5 -30 -11 -39 -26
-39 -26 0 -69 -23 -93 -51 -20 -22 -20 -22 0 -14 40 16 95 29 100 23 14 -14
-38 -98 -60 -98 -3 0 -3 17 0 38 l5 37 -13 -35 c-7 -19 -23 -39 -35 -45 -38
-17 -35 -60 11 -127 10 -16 14 -28 7 -28 -8 0 -8 -6 0 -21 7 -11 10 -23 7 -25
-2 -3 -14 14 -26 38 -11 24 -21 37 -21 30 0 -7 5 -22 11 -34 6 -11 8 -22 5
-25 -3 -4 -15 16 -27 42 -20 44 -21 60 -15 162 4 63 10 121 13 130 4 10 2 14
-4 10 -19 -12 -36 -226 -24 -305 6 -39 11 -73 11 -76 0 -3 3 -5 8 -4 4 2 24
-8 45 -21 35 -21 37 -24 20 -37 -16 -12 -20 -11 -35 7 -10 12 -18 29 -18 38 0
12 -2 13 -9 3 -9 -15 -27 22 -34 68 -3 22 -5 23 -12 7 -10 -24 19 -87 56 -123
21 -20 26 -31 18 -40 -13 -16 -47 -6 -54 17 -4 10 -10 19 -15 19 -4 0 -13 14
-19 30 -5 17 -14 30 -19 30 -11 0 -3 112 9 125 14 15 10 72 -6 88 -13 14 -12
28 5 124 26 147 54 223 81 223 5 0 0 -15 -10 -32 -11 -18 -22 -44 -25 -58 -4
-14 4 -3 18 25 27 53 49 75 75 75 14 0 14 -1 1 -10 -23 -15 48 -13 102 4 58
17 135 70 144 99 8 26 24 39 42 32 8 -3 18 -5 23 -5z m658 -19 c8 -5 16 -20
18 -32 2 -13 11 -34 19 -47 20 -31 5 -70 -44 -113 -39 -35 -45 -31 -56 34 -6
33 -4 38 18 48 24 11 41 37 31 47 -2 3 -15 0 -27 -6 -13 -6 -17 -11 -10 -11
17 -1 5 -21 -13 -21 -14 0 -38 57 -30 70 2 4 19 11 37 15 23 5 28 9 15 12 -10
3 -29 -3 -42 -11 -14 -9 -25 -12 -25 -6 0 23 81 39 109 21z m71 -15 c0 -7 4
-6 9 2 7 11 9 11 14 -2 4 -9 3 -16 -2 -16 -5 0 -11 -13 -14 -30 -11 -51 -37
-32 -50 36 -5 29 -4 31 19 26 13 -2 24 -9 24 -16z m-192 -24 c32 -44 55 -148
56 -247 0 -61 2 -80 8 -60 4 18 6 -3 4 -56 -2 -62 -7 -94 -20 -113 -21 -32
-54 -47 -78 -34 -27 14 -21 25 10 20 45 -6 52 12 41 108 -22 209 -32 277 -45
309 -19 45 -17 51 6 22 11 -13 20 -18 20 -12 0 16 -46 61 -61 61 -7 0 -4 -7 7
-15 10 -8 15 -14 9 -15 -17 0 -32 14 -39 38 -7 20 -4 22 28 22 27 0 39 -6 54
-28z m-134 -4 c-7 -23 -6 -23 15 -4 21 19 21 19 21 -7 0 -24 -2 -26 -26 -17
-19 8 -31 6 -47 -5 -12 -8 -26 -15 -32 -15 -5 0 5 9 23 20 18 11 35 27 38 35
9 24 16 17 8 -7z m-807 -76 c-9 -10 -17 -25 -17 -32 0 -7 -2 -11 -5 -8 -3 3
-3 24 1 47 6 38 8 41 22 27 14 -14 14 -17 -1 -34z m917 -52 c8 -41 17 -106 21
-145 7 -69 7 -70 -12 -53 -15 14 -22 42 -31 120 -7 57 -15 121 -18 143 -6 37
-5 39 10 25 9 -9 22 -49 30 -90z m-77 76 c1 -1 4 -30 8 -66 l7 -65 -26 40
c-14 22 -26 45 -26 51 0 6 -8 18 -17 25 -17 13 -17 13 -3 -5 14 -18 14 -19 -9
-6 l-24 13 24 13 c19 10 52 10 66 0z m-144 -3 c-18 -2 -48 -2 -65 0 -18 2 -4
4 32 4 36 0 50 -2 33 -4z m-149 -153 c-66 -15 -67 -16 -48 -52 9 -18 22 -40
30 -48 11 -13 7 -19 -32 -39 -27 -15 -43 -29 -40 -37 3 -7 -4 -24 -15 -37 -27
-35 -24 -42 9 -19 51 35 53 36 47 9 -7 -25 8 -66 29 -79 43 -29 106 14 106 73
l0 38 40 -17 c43 -19 46 -25 28 -84 -12 -41 -39 -64 -64 -54 -8 3 -14 2 -14
-1 0 -12 33 -43 47 -43 20 0 6 -51 -21 -74 -30 -27 -151 -81 -215 -96 -74 -17
-143 -7 -227 34 -91 46 -106 62 -107 125 -2 45 0 51 18 51 19 0 19 1 -3 18
-28 22 -62 72 -62 92 1 12 3 11 11 -2 14 -25 32 -23 24 2 -5 16 -2 20 14 20
17 0 20 -5 15 -29 -7 -36 19 -88 51 -103 48 -22 106 32 90 83 -5 14 -2 17 9
13 9 -3 16 -10 16 -16 0 -16 81 35 113 72 43 49 94 160 77 170 -20 12 29 40
70 39 l35 -1 -31 -8z m-354 -60 c11 -7 4 -10 -27 -10 -23 0 -50 -2 -60 -5 -10
-3 -4 1 12 9 35 18 55 19 75 6z m750 -156 c0 -42 -3 -54 -15 -54 -9 0 -22 14
-29 31 l-13 31 -7 -25 c-3 -14 -1 -38 5 -54 9 -24 7 -30 -11 -45 -26 -21 -84
-25 -77 -5 2 6 14 11 25 9 12 -2 22 2 22 7 0 6 -7 11 -15 11 -9 0 -12 6 -9 15
4 11 10 12 18 6 9 -7 11 -1 8 23 -3 26 3 41 27 68 38 43 41 61 5 27 l-26 -24
7 25 c4 14 15 33 23 43 16 18 17 18 39 -8 18 -20 23 -38 23 -81z m-425 61
c-27 -13 -51 -22 -53 -20 -7 7 62 45 82 45 11 0 -2 -11 -29 -25z m85 -54 c-6
-22 -5 -31 6 -35 20 -8 -3 -45 -33 -52 -27 -7 -58 20 -49 43 6 14 8 14 24 -1
24 -21 32 -20 32 4 0 11 -4 20 -10 20 -5 0 -10 7 -10 15 0 13 14 23 47 34 1 1
-2 -12 -7 -28z m-50 6 c0 -14 -20 -37 -32 -37 -10 0 -11 34 -1 43 11 12 33 8
33 -6z m-612 -44 c2 -24 -2 -34 -18 -43 -26 -14 -37 -5 -43 35 -3 23 -4 21 -3
-8 2 -40 0 -41 -65 -52 -36 -7 -37 -6 -43 30 -4 21 -4 41 1 46 11 11 101 28
138 26 26 -2 30 -6 33 -34z m230 -5 c-22 -32 -38 -34 -38 -4 0 21 5 26 26 26
25 0 26 -1 12 -22z m62 -3 c0 -19 -20 -29 -32 -17 -15 15 -2 43 17 36 8 -3 15
-12 15 -19z m-500 -12 c0 -10 3 -29 6 -43 5 -18 4 -22 -4 -15 -17 15 -27 75
-13 75 6 0 11 -8 11 -17z m453 -35 c3 -10 7 -10 19 0 12 10 18 10 27 -2 10
-12 7 -18 -13 -31 -24 -16 -28 -16 -51 -1 -14 9 -25 20 -25 25 0 22 36 29 43
9z m-258 -63 c-7 -59 -11 -64 -30 -38 -14 19 -1 83 18 95 18 11 20 2 12 -57z
m-70 9 c4 -26 2 -39 -6 -45 -16 -10 -15 -12 -23 39 -8 55 18 60 29 6z m220
-72 c-9 -9 -52 40 -60 68 -6 20 0 16 29 -19 20 -24 34 -46 31 -49z m805 70 c0
-4 -7 -17 -15 -29 -16 -22 -16 -22 -35 -3 -28 28 -48 25 -57 -10 -6 -22 -12
-27 -22 -21 -12 8 -12 13 3 36 15 23 23 26 49 21 18 -3 39 -1 47 4 18 12 30
13 30 2z m-90 -82 c-7 -53 -8 -53 -9 -13 -1 38 7 78 14 71 2 -2 0 -28 -5 -58z
m-900 11 c0 -14 -6 -17 -25 -13 -29 5 -32 17 -8 31 22 12 33 5 33 -18z m875
-37 c-3 -13 2 -27 10 -34 17 -14 15 -74 -3 -92 -7 -7 -12 -20 -12 -29 0 -17
-32 -34 -85 -44 l-30 -6 30 14 c44 20 58 41 50 76 -3 16 -2 32 4 35 11 7 3 75
-10 90 -4 5 -5 14 -3 21 4 10 11 10 30 1 18 -8 23 -17 19 -32z m-810 -14 c7
-40 -13 -94 -37 -103 -7 -2 -26 3 -43 11 -30 16 -30 16 -6 22 24 5 31 25 35
91 1 20 5 24 23 21 16 -3 23 -14 28 -42z m-81 -2 c8 -33 7 -58 -3 -58 -5 0
-13 18 -19 40 -8 31 -7 40 3 40 7 0 15 -10 19 -22z m329 -63 c21 -9 35 -20 32
-25 -9 -15 -62 -12 -77 4 -8 8 -23 16 -34 18 -14 3 -18 11 -17 31 1 15 -2 25
-8 22 -17 -11 -10 -55 11 -63 14 -5 17 -11 10 -22 -5 -8 -10 -10 -10 -4 0 6
-13 17 -30 24 -33 14 -38 27 -15 36 8 4 15 12 15 19 0 23 24 23 56 -1 16 -13
47 -30 67 -39z m-218 8 c-5 -10 -14 -38 -20 -63 -10 -34 -15 -41 -20 -27 -5
11 1 34 16 62 24 45 38 61 24 28z m59 -20 c20 -15 22 -22 14 -56 -10 -47 3
-129 32 -194 24 -54 24 -54 6 -47 -9 3 -22 -5 -32 -21 l-18 -27 -9 23 c-5 13
-17 58 -28 99 -11 41 -25 85 -31 97 -18 36 6 143 33 143 6 0 21 -8 33 -17z
m397 -66 c-9 -9 -14 -9 -21 3 -5 8 -10 10 -10 4 0 -18 -90 -17 -96 1 -3 8 -11
12 -17 8 -6 -4 -7 -1 -2 6 5 9 10 10 18 2 12 -12 75 -15 101 -5 9 3 16 14 17
23 0 11 3 10 11 -7 9 -17 8 -26 -1 -35z m-154 1 l42 -41 58 12 c32 8 70 20 86
27 23 13 27 13 27 0 0 -8 -5 -16 -11 -18 -7 -2 -13 -26 -15 -52 -2 -43 -1 -47
17 -43 28 8 34 -16 13 -52 -31 -53 -142 -100 -234 -100 -39 0 -130 5 -137 8
-2 1 6 16 17 34 23 38 25 72 5 107 -21 37 -18 64 11 91 24 22 26 23 38 7 20
-27 36 -21 36 12 0 17 -5 30 -12 30 -27 0 -80 -42 -93 -73 -14 -32 -14 -32
-15 -5 0 48 37 79 120 97 2 1 23 -18 47 -41z m-166 -2 c-21 -34 -30 -102 -11
-91 6 3 10 2 10 -3 0 -5 -9 -12 -19 -15 -22 -5 -31 16 -31 73 0 33 13 46 68
69 2 0 -6 -14 -17 -33z m404 -26 c3 -5 15 -10 27 -10 17 0 20 -5 16 -32 -3
-18 -1 -45 4 -60 7 -18 6 -34 -3 -50 -12 -23 -12 -23 -25 12 -7 19 -13 45 -13
57 -1 16 -6 21 -16 17 -10 -4 -15 1 -16 15 -1 12 -2 27 -3 34 -4 25 16 38 29
17z m180 -50 c-23 -25 -31 -25 -38 -1 -4 16 1 21 22 23 35 5 37 2 16 -22z m35
-5 c-9 -11 -9 -15 -1 -15 16 0 14 -47 -4 -74 -9 -13 -40 -40 -70 -60 -54 -35
-71 -54 -39 -42 12 5 15 2 9 -11 -3 -10 -11 -54 -17 -98 l-11 -80 32 -35 c20
-22 30 -42 27 -54 -3 -10 7 -41 21 -68 39 -75 35 -117 -19 -186 -58 -75 -74
-78 -84 -15 -3 26 -13 63 -20 82 -8 19 -14 65 -13 106 1 39 -4 98 -11 130 -16
76 -7 128 32 176 17 21 29 41 26 45 -3 3 -15 -6 -26 -20 -24 -31 -32 -33 -32
-6 0 11 -7 23 -16 27 -8 3 -13 12 -10 19 3 8 0 11 -10 7 -7 -3 -14 -9 -14 -14
0 -5 -4 -9 -10 -9 -21 0 -8 17 25 33 38 18 60 23 36 8 -10 -7 -11 -13 -2 -27
10 -18 10 -18 11 4 0 12 6 22 14 22 7 0 19 7 26 15 15 18 -1 20 -18 3 -6 -6
-14 -9 -17 -7 -2 3 34 36 81 73 47 37 90 77 97 87 7 11 13 15 15 9 2 -6 -2
-17 -8 -25z m-90 10 c18 -21 9 -45 -27 -73 l-33 -25 0 41 c0 22 3 47 6 56 8
20 38 21 54 1z m-498 -82 c5 -21 -11 -73 -21 -73 -4 0 -15 15 -23 34 -16 32
-16 34 5 44 31 15 35 14 39 -5z m387 -30 c10 -19 8 -24 -10 -33 -28 -15 -31
-9 -18 29 6 18 12 31 14 29 1 -2 7 -13 14 -25z m-59 -53 c-6 -11 -15 -20 -21
-20 -5 0 -15 -11 -21 -25 -14 -32 -24 -32 -23 1 1 16 12 32 31 45 37 24 47 24
34 -1z m220 -10 c8 -5 11 -10 7 -10 -5 0 -5 -5 -1 -11 4 -8 9 -7 14 2 5 7 8
-4 7 -27 -3 -49 -12 -64 -59 -93 -36 -22 -38 -22 -38 -3 0 37 24 137 34 144
14 10 18 10 36 -2z m-592 -19 c2 -7 -3 -11 -13 -9 -12 2 -21 -11 -35 -49 -10
-29 -36 -87 -57 -130 -29 -59 -44 -79 -60 -81 -13 -2 -23 0 -23 4 0 4 17 34
39 68 21 34 53 90 71 126 18 36 37 71 43 78 12 15 29 11 35 -7z m302 -16 c0
-8 -2 -15 -4 -15 -2 0 -11 -3 -20 -6 -10 -4 -16 -1 -16 9 0 14 13 24 33 26 4
1 7 -6 7 -14z m-48 -19 c4 -22 0 -25 -50 -35 -64 -13 -102 -14 -102 -3 1 40
13 51 64 55 28 2 58 4 67 5 10 1 18 -7 21 -22z m156 2 c7 -7 12 -26 11 -42 l0
-31 -19 40 c-10 22 -19 34 -19 27 -1 -7 -6 -10 -11 -7 -13 8 -3 25 14 25 6 0
17 -5 24 -12z m-364 -7 c9 -2 -26 -91 -36 -91 -6 0 -8 17 -4 43 l5 42 -13 -39
c-14 -44 -32 -57 -39 -29 -4 15 -5 14 -6 -3 -1 -28 14 -33 73 -27 35 4 50 11
53 23 3 13 20 19 64 23 32 4 86 16 120 27 47 16 64 18 69 9 5 -6 19 -10 34 -7
22 4 27 1 32 -19 4 -14 1 -36 -5 -50 -10 -21 -9 -29 6 -45 15 -16 19 -42 22
-137 1 -64 -1 -112 -5 -108 -4 4 -7 48 -5 96 2 66 -1 97 -13 120 -16 31 -17
31 -42 14 -14 -9 -44 -44 -67 -77 -89 -132 -190 -216 -257 -216 -83 0 -180 45
-226 106 l-24 31 41 39 c22 21 48 47 57 56 9 9 30 53 46 97 15 45 32 79 36 76
4 -3 10 8 13 23 5 23 10 27 36 26 17 -1 33 -2 35 -3z m39 -33 c-29 -78 -51
-80 -32 -4 8 34 16 46 30 46 18 0 18 -2 2 -42z m-239 -85 c-75 -125 -116 -183
-129 -179 -20 6 -24 79 -7 114 15 29 181 173 191 166 2 -2 -23 -47 -55 -101z
m831 47 c10 -45 -2 -67 -51 -96 -24 -14 -42 -30 -39 -34 3 -5 1 -11 -4 -14 -5
-3 -11 1 -15 9 -3 8 0 15 7 15 7 1 6 5 -4 13 -9 7 -21 22 -27 34 -11 19 -8 23
34 43 25 12 52 33 61 46 18 29 29 24 38 -16z m25 -122 c22 -80 -23 -118 -61
-53 -12 19 -25 32 -30 29 -5 -3 -9 0 -9 6 0 6 8 10 18 8 9 -2 27 9 40 24 13
16 25 28 28 28 2 0 8 -19 14 -42z m-310 -2 c0 -7 -9 -24 -21 -37 -29 -33 -52
-79 -39 -79 19 0 -81 -149 -122 -182 -35 -27 -51 -33 -102 -36 -34 -1 -67 1
-74 6 -21 14 -3 42 28 42 41 0 117 57 179 134 30 37 57 62 61 57 3 -6 22 18
40 53 32 59 50 74 50 42z m5 -140 c-3 -51 -10 -97 -13 -102 -11 -15 -81 -44
-107 -44 l-25 0 34 48 c42 59 106 178 107 200 0 12 2 13 6 4 3 -8 2 -55 -2
-106z m-277 -212 l47 6 -25 -20 c-19 -15 -41 -20 -87 -20 -35 0 -63 2 -63 5 0
3 5 14 12 24 10 16 16 17 40 9 16 -6 51 -8 76 -4z"/>
<path d="M956 2292 l-20 -27 22 19 c26 22 30 11 5 -16 -9 -10 -13 -18 -10 -18
12 0 47 44 47 59 0 13 -2 13 -9 2 -5 -7 -10 -9 -12 -3 -2 6 -13 -2 -23 -16z"/>
<path d="M1388 2310 c-16 -27 -74 -64 -128 -81 -24 -7 -24 -7 6 -8 37 -1 93
16 116 36 19 17 40 70 30 77 -4 2 -15 -8 -24 -24z"/>
<path d="M1856 2301 c-20 -22 -72 -40 -121 -42 l-30 -1 32 -10 c60 -20 154 23
141 63 -2 6 -12 1 -22 -10z"/>
<path d="M1552 2182 c19 -28 12 -69 -14 -83 -22 -12 -48 3 -48 29 0 8 -3 13
-6 9 -10 -9 6 -45 22 -51 8 -3 30 1 49 8 18 8 37 11 41 8 3 -4 2 3 -4 14 -16
31 8 65 32 45 20 -17 20 -25 -1 -47 -12 -12 -13 -16 -4 -13 48 16 35 73 -17
75 -17 1 -39 7 -49 15 -16 13 -16 13 -1 -9z"/>
<path d="M1317 2109 c-4 -15 -11 -20 -22 -15 -10 3 -14 2 -9 -5 3 -6 15 -9 25
-6 10 3 20 0 22 -7 3 -6 5 4 4 22 0 36 -12 43 -20 11z"/>
<path d="M1767 2108 c-5 -16 -3 -17 9 -7 11 9 17 9 29 -1 17 -14 45 -7 44 12
0 10 -2 10 -6 1 -6 -17 -32 -17 -39 0 -7 20 -32 16 -37 -5z"/>
<path d="M1962 1744 c-1 -17 -12 -46 -25 -65 -36 -54 -41 -63 -30 -56 5 3 22
24 37 46 20 29 26 48 23 73 l-4 33 -1 -31z"/>
<path d="M1535 1610 c-23 -7 -15 -8 30 -5 52 4 55 3 25 -5 -19 -5 -50 -9 -69
-8 -42 3 -50 -13 -20 -43 30 -30 110 -23 147 14 18 18 23 30 16 37 -14 14 -93
20 -129 10z m90 -50 c-8 -13 -71 -24 -92 -15 -17 7 -16 8 2 15 28 12 97 12 90
0z"/>
<path d="M1390 1240 c0 -13 40 -13 60 0 11 7 5 10 -22 10 -21 0 -38 -4 -38
-10z"/>
<path d="M1510 1242 c0 -17 51 -52 76 -52 13 0 24 5 24 10 0 6 -12 10 -27 10
-15 0 -37 10 -50 22 -13 12 -23 17 -23 10z"/>
<path d="M1488 2460 c-15 -4 -37 -16 -50 -25 -19 -14 -19 -16 -3 -10 11 5 43
16 70 26 49 18 36 25 -17 9z"/>
<path d="M1645 2461 c40 -4 71 -14 94 -30 19 -14 31 -20 27 -13 -4 7 -2 12 6
13 7 0 -5 9 -27 20 -27 12 -60 18 -100 17 l-60 -1 60 -6z"/>
<path d="M603 2244 c-9 -15 -18 -46 -18 -68 -1 -23 -9 -52 -18 -66 -37 -57
-47 -98 -45 -191 1 -84 4 -96 25 -117 13 -13 33 -22 46 -21 12 2 36 -5 54 -14
46 -24 101 -21 162 9 62 31 125 106 142 167 6 23 17 54 25 69 30 56 9 117 -36
105 -15 -4 -24 2 -35 23 -28 53 -71 75 -155 76 -70 1 -75 3 -80 25 -8 35 -44
37 -67 3z m57 -24 c0 -31 18 -50 29 -32 4 6 25 14 48 18 53 8 127 -25 154 -70
20 -33 25 -51 10 -42 -5 4 -7 -12 -4 -35 5 -36 4 -41 -13 -37 -10 2 -30 20
-43 40 -22 35 -25 36 -45 23 -11 -8 -31 -15 -43 -15 -17 0 -24 -8 -33 -39 -5
-21 -17 -45 -26 -52 -14 -11 -18 -10 -30 6 -8 10 -14 31 -14 47 0 15 -4 28
-10 28 -5 0 -10 -15 -10 -33 0 -21 -8 -41 -20 -52 -15 -13 -20 -31 -20 -67 0
-26 -4 -48 -10 -48 -16 0 -42 47 -47 87 -5 42 27 142 52 163 9 7 15 29 15 52
0 40 14 77 34 90 16 11 26 -1 26 -32z m310 -131 c9 -16 7 -29 -9 -63 -12 -23
-21 -49 -21 -57 -1 -27 -38 -94 -71 -127 -67 -68 -157 -91 -209 -55 -14 10
-37 16 -53 14 -33 -3 -67 23 -67 52 0 19 1 20 20 2 18 -17 21 -17 38 -2 12 11
22 13 35 6 44 -25 93 30 65 73 -14 22 -14 25 8 41 13 9 26 32 29 51 6 29 11
34 43 40 22 3 41 1 47 -6 7 -8 5 -9 -7 -5 -23 8 -68 -29 -68 -55 0 -29 28 -58
56 -58 29 0 57 40 48 66 -6 16 -5 17 7 7 21 -20 48 -15 54 10 4 13 5 27 3 33
-3 13 21 54 32 54 5 0 14 -9 20 -21z m-142 -61 c19 -19 14 -56 -8 -68 -23 -12
-35 -7 -49 18 -21 40 26 81 57 50z m-191 -63 c-18 -13 -17 -14 9 -17 51 -6 59
-67 9 -76 -25 -5 -38 12 -37 48 0 21 -3 28 -11 24 -7 -4 -1 5 12 19 14 15 27
24 30 21 3 -3 -2 -12 -12 -19z"/>
<path d="M723 1923 c0 -16 2 -22 4 -15 3 6 11 12 19 12 19 0 18 16 -2 24 -22
8 -22 9 -21 -21z"/>
<path d="M747 1903 c-13 -12 -7 -50 9 -63 12 -11 18 -10 31 3 14 13 14 21 5
42 -11 24 -31 32 -45 18z m33 -34 c0 -24 -23 -21 -28 4 -2 10 3 17 12 17 10 0
16 -9 16 -21z"/>
<path d="M2316 1940 c-41 -103 -44 -132 -17 -176 16 -26 35 -37 98 -58 43 -14
85 -26 94 -26 11 0 29 29 53 81 l38 82 -19 51 c-19 49 -23 53 -104 93 -46 23
-89 42 -95 42 -7 1 -28 -40 -48 -89z m223 -27 c17 -37 14 -44 -16 -36 -64 15
-131 54 -137 77 -3 13 -9 31 -12 40 -10 26 153 -53 165 -81z m-166 20 c1 -22
-12 -67 -30 -107 l-31 -69 -11 36 c-11 31 -9 44 20 117 33 87 51 95 52 23z
m89 -49 c15 -8 34 -14 43 -14 9 0 14 -4 11 -9 -4 -5 3 -7 14 -4 33 9 33 -20
-1 -88 -18 -35 -33 -66 -35 -67 -7 -10 -63 11 -58 20 5 7 2 8 -5 3 -16 -10
-101 14 -101 29 1 6 9 29 20 51 11 22 19 43 20 47 0 4 5 19 10 33 11 28 24 28
82 -1z"/>
<path d="M2424 1856 c-18 -8 -35 -19 -38 -25 -6 -9 81 23 93 35 9 9 -25 3 -55
-10z"/>
<path d="M2415 1815 c-38 -18 -67 -34 -64 -34 4 -1 40 14 80 33 41 19 70 35
64 35 -5 0 -41 -15 -80 -34z"/>
<path d="M717 1643 c-3 -5 -15 -41 -26 -80 -18 -68 -18 -72 -2 -99 10 -16 24
-34 32 -41 21 -17 140 -46 150 -36 13 13 49 119 49 144 0 43 -36 76 -103 92
-35 9 -71 19 -79 22 -9 4 -18 2 -21 -2z m96 -35 c26 -6 47 -15 47 -19 0 -11
-29 -121 -33 -125 -3 -3 -129 26 -135 31 -2 2 0 15 4 30 l7 28 14 -29 c7 -16
11 -21 8 -11 -14 52 -15 65 -5 91 8 21 15 26 28 21 9 -3 38 -11 65 -17z m86
-56 c9 -20 9 -36 1 -55 -34 -89 -29 -83 -45 -60 -12 17 -12 28 3 81 9 34 19
62 23 62 4 0 12 -13 18 -28z m-50 -131 l15 -24 -39 7 c-59 11 -102 32 -114 54
-10 19 -10 19 56 3 47 -12 71 -24 82 -40z"/>
<path d="M2160 1556 c0 -44 4 -58 20 -69 17 -12 18 -16 6 -26 -11 -9 -18 -5
-35 25 -26 43 -42 40 -59 -10 -22 -67 -35 -294 -19 -327 6 -12 2 -18 -12 -22
-27 -7 -27 -24 -1 -32 12 -4 19 -14 18 -23 -2 -12 4 -17 20 -17 12 0 27 -6 32
-14 6 -11 12 -12 22 -3 11 9 26 7 66 -8 29 -11 61 -20 71 -20 10 0 22 -7 25
-16 3 -9 13 -14 21 -10 8 3 18 -2 23 -10 8 -14 10 -14 21 0 10 12 18 13 32 5
26 -14 42 -3 29 21 -8 15 -4 24 18 47 16 15 37 51 48 78 10 28 33 74 51 104
59 98 68 160 21 146 -13 -4 -31 -14 -40 -23 -16 -14 -18 -14 -18 0 0 9 11 19
25 22 23 6 65 57 65 80 0 9 -65 3 -92 -8 -16 -7 -17 -4 -12 22 8 42 -25 75
-71 70 -25 -2 -41 4 -59 21 -16 15 -38 24 -56 24 -33 0 -73 -30 -66 -50 11
-29 -14 -21 -29 9 -9 18 -27 41 -40 51 l-25 18 0 -55z m62 -30 c7 -13 6 -22
-4 -33 -19 -19 -34 -2 -44 52 l-7 40 23 -20 c12 -11 26 -28 32 -39z m108 36
c0 -4 -5 -13 -12 -20 -9 -9 -9 -12 0 -12 6 0 15 7 20 16 5 9 14 14 21 10 37
-24 -23 -66 -66 -47 -25 12 -29 31 -11 49 13 13 48 16 48 4z m128 -55 c2 -11
-3 -17 -15 -18 -11 0 -13 -3 -5 -6 7 -3 20 1 28 8 13 10 17 10 24 -2 14 -22
-12 -41 -44 -33 -42 10 -49 80 -8 72 9 -2 18 -11 20 -21z m-182 -8 c7 -11 66
-8 97 5 12 6 17 4 17 -8 0 -26 38 -56 70 -56 25 0 31 -5 38 -32 11 -42 7 -46
-21 -20 -33 31 -152 84 -203 90 -36 4 -42 7 -33 18 14 17 25 18 35 3z m-146
-92 c-31 -33 -37 -28 -20 18 6 16 14 23 21 19 9 -5 10 1 5 22 l-6 29 15 -28
c15 -26 15 -29 -15 -60z m181 47 c64 -19 146 -64 175 -96 12 -13 24 -42 27
-66 6 -45 -14 -160 -33 -189 -10 -16 -11 -16 -5 2 3 11 8 34 11 50 l4 30 -15
-32 c-17 -37 -30 -42 -39 -15 -9 27 -43 82 -48 77 -5 -5 -39 28 -67 65 -18 24
-19 24 -57 8 -22 -9 -63 -15 -94 -14 -52 1 -55 2 -53 26 2 20 -2 17 -17 -15
-29 -60 -25 -11 4 52 29 61 99 133 130 133 12 0 47 -7 77 -16z m263 -39 c-18
-27 -44 -39 -57 -26 -17 17 -2 46 28 52 41 8 47 2 29 -26z m-8 -74 c-10 -11
-15 -24 -12 -29 3 -5 0 -25 -6 -43 l-12 -34 -8 45 c-7 39 -5 47 13 63 29 23
46 22 25 -2z m-257 -94 c19 5 22 2 19 -13 -4 -24 -46 -30 -72 -11 -13 9 -17
20 -12 32 6 16 8 16 24 2 11 -10 26 -14 41 -10z m-79 -12 c0 -15 49 -45 74
-45 8 0 20 8 26 18 9 15 12 14 35 -13 24 -29 55 -110 55 -146 0 -53 -193 -27
-278 37 -33 26 -62 71 -62 98 0 9 21 27 48 40 54 29 102 34 102 11z"/>
<path d="M2210 1386 c-27 -33 18 -72 48 -42 13 13 14 20 6 34 -15 23 -38 26
-54 8z"/>
<path d="M2386 1325 c-20 -20 -20 -29 -1 -45 19 -16 45 -6 45 18 0 31 -25 46
-44 27z"/>
<path d="M2202 1198 c8 -13 26 -29 39 -35 29 -15 88 -17 109 -3 11 7 0 10 -37
10 -40 0 -58 5 -81 25 -37 31 -49 32 -30 3z"/>
<path d="M836 1258 c-34 -30 -40 -43 -56 -115 -15 -68 -15 -84 -5 -93 8 -6 50
-19 95 -28 80 -17 82 -17 118 4 33 19 39 30 60 100 30 104 27 126 -19 141 -20
6 -63 15 -95 18 -57 7 -61 5 -98 -27z m154 1 c27 -6 50 -14 50 -17 0 -4 -13
-14 -29 -24 -27 -15 -35 -15 -100 0 -39 8 -71 19 -71 24 0 4 11 6 25 2 14 -3
25 -2 24 2 -5 28 18 31 101 13z m-87 -56 c59 -16 95 -33 69 -33 -6 0 -9 -7 -6
-15 4 -10 0 -15 -10 -15 -9 0 -19 6 -21 13 -3 6 -17 13 -31 13 -14 1 -33 9
-43 18 -10 9 -23 16 -29 16 -7 0 -12 5 -12 10 0 14 10 13 83 -7z m157 10 c-1
-11 -26 -43 -34 -43 -14 0 -36 -29 -27 -34 5 -3 11 1 15 9 6 16 26 21 26 6 0
-5 -11 -19 -25 -32 -27 -26 -35 -50 -10 -29 9 7 18 11 21 8 6 -7 -54 -58 -67
-58 -6 0 -6 7 -1 18 5 9 15 42 21 72 8 35 20 61 34 72 23 18 47 24 47 11z
m-140 -75 c44 -14 45 -16 29 -72 -10 -37 -12 -38 -47 -32 -82 13 -112 26 -112
48 0 17 2 18 15 8 8 -7 15 -9 15 -5 0 4 12 0 26 -9 14 -10 35 -15 47 -13 18 4
17 5 -5 6 -16 0 -28 6 -28 12 0 7 11 9 29 6 25 -5 28 -3 24 14 -3 10 -16 22
-29 25 -13 3 -24 10 -24 15 0 12 13 11 60 -3z m-71 -24 c2 -2 2 -7 -2 -10 -10
-10 -58 6 -52 17 6 8 42 4 54 -7z"/>
<path d="M2147 872 c-22 -9 -82 -135 -73 -157 15 -40 174 -83 212 -57 8 6 74
136 74 147 0 2 -30 20 -67 39 -65 35 -108 43 -146 28z m102 -26 c7 -8 26 -18
42 -21 16 -4 32 -11 35 -17 5 -7 0 -9 -14 -6 -16 5 -22 2 -22 -11 0 -9 -7 -26
-15 -37 -19 -25 -19 -40 0 -20 8 8 15 19 15 24 0 12 29 36 36 30 8 -9 -29 -78
-38 -72 -5 3 -9 0 -7 -7 4 -31 -2 -39 -31 -39 -16 0 -30 3 -30 8 0 4 13 31 29
59 l29 53 -56 35 -56 35 36 0 c19 0 41 -6 47 -14z m-16 -48 c17 -13 17 -16 4
-43 -9 -17 -20 -42 -26 -57 -6 -16 -15 -28 -21 -28 -6 0 -9 4 -6 9 3 5 -7 11
-22 14 -15 3 -36 12 -47 20 -18 14 -19 16 -1 54 9 21 19 48 21 58 2 11 4 21 4
23 1 4 73 -34 94 -50z"/>
<path d="M2140 790 c-26 -52 -26 -57 12 -76 30 -15 32 -15 45 2 25 34 28 66 8
81 -26 18 -30 17 -43 -12 -16 -34 -15 -45 3 -45 9 0 14 8 12 19 -2 22 16 30
21 9 4 -22 -22 -50 -41 -42 -21 8 -22 36 -2 74 9 17 13 30 10 30 -2 0 -14 -18
-25 -40z"/>
<path d="M175 601 c-3 -6 0 -37 6 -70 10 -45 10 -80 2 -143 -6 -45 -9 -86 -7
-90 11 -18 44 14 44 41 0 34 39 95 64 99 26 5 17 -30 -12 -43 -25 -11 -26 -14
-12 -49 11 -31 52 -59 74 -50 19 7 22 44 2 44 -7 0 -19 7 -26 15 -11 13 -9 20
13 43 29 31 34 51 15 70 -30 30 -85 5 -115 -51 -6 -12 -9 15 -9 85 1 88 -1
103 -16 106 -9 2 -19 -2 -23 -7z"/>
<path d="M771 596 c-10 -11 -10 -20 -1 -37 8 -14 11 -60 9 -133 -5 -133 6
-160 46 -120 13 13 13 19 3 32 -9 11 -13 53 -13 141 0 107 -2 126 -16 129 -9
1 -21 -4 -28 -12z"/>
<path d="M1184 600 c-8 -8 -6 -28 4 -67 11 -46 12 -73 3 -142 -6 -47 -7 -89
-2 -94 13 -13 41 22 41 53 0 32 43 90 67 90 22 0 11 -33 -15 -45 -26 -12 -27
-17 -6 -60 16 -35 50 -51 71 -33 17 14 17 38 0 38 -8 0 -22 8 -31 19 -15 16
-15 19 -2 24 8 3 22 17 31 31 13 19 14 29 5 45 -22 43 -84 20 -117 -43 -8 -14
-9 7 -5 72 3 66 1 96 -8 107 -15 18 -22 19 -36 5z"/>
<path d="M1981 596 c-8 -10 -9 -21 0 -42 7 -19 9 -66 4 -138 -7 -116 0 -135
37 -115 22 12 23 26 2 46 -8 9 -13 22 -10 29 3 8 8 53 12 102 8 109 -11 159
-45 118z"/>
<path d="M2231 596 c-9 -10 -9 -21 -3 -33 19 -35 23 -102 13 -179 -7 -45 -8
-81 -3 -86 14 -14 42 20 42 49 0 31 44 93 66 93 23 0 13 -33 -14 -45 -26 -12
-27 -17 -6 -60 16 -35 50 -51 71 -33 16 13 17 38 1 38 -6 0 -19 7 -29 16 -16
15 -16 17 14 44 28 25 30 30 19 54 -22 48 -84 29 -119 -38 -8 -14 -9 7 -5 72
3 66 1 96 -8 107 -16 19 -24 19 -39 1z"/>
<path d="M2451 562 c-11 -20 3 -42 26 -42 15 0 32 30 26 48 -7 18 -41 14 -52
-6z"/>
<path d="M415 448 c-49 -46 -57 -97 -21 -133 30 -29 55 -27 94 8 18 17 22 17
22 5 0 -22 24 -40 44 -32 20 8 21 40 1 48 -17 6 -21 76 -5 76 16 0 11 47 -6
54 -9 3 -33 6 -55 6 -30 0 -47 -7 -74 -32z m88 -42 c-4 -51 -52 -83 -81 -54
-33 33 6 92 58 86 21 -3 25 -8 23 -32z"/>
<path d="M619 451 c-23 -24 -29 -38 -29 -73 0 -52 7 -63 43 -77 31 -12 82 3
105 32 16 19 -3 36 -21 18 -19 -19 -75 -13 -86 8 -10 18 -8 19 28 14 33 -5 44
-1 65 20 30 30 33 49 10 71 -26 27 -81 20 -115 -13z m79 -28 c-2 -12 -14 -19
-36 -21 -33 -3 -40 6 -20 26 19 19 60 15 56 -5z"/>
<path d="M895 448 c-49 -46 -57 -97 -21 -133 30 -29 55 -27 94 8 18 17 22 17
22 5 0 -22 24 -40 44 -32 20 8 21 40 1 48 -17 6 -21 76 -5 76 16 0 11 47 -6
54 -9 3 -33 6 -55 6 -30 0 -47 -7 -74 -32z m88 -42 c-4 -51 -52 -83 -81 -54
-33 33 6 92 58 86 21 -3 25 -8 23 -32z"/>
<path d="M1406 459 c-20 -16 -24 -24 -16 -38 5 -10 6 -27 3 -39 -15 -60 35
-102 96 -81 58 20 82 101 47 154 -22 33 -90 35 -130 4z m98 -32 c22 -16 18
-65 -5 -80 -23 -14 -67 0 -74 24 -8 25 19 69 43 69 10 0 26 -6 36 -13z"/>
<path d="M1563 465 c-3 -9 2 -21 11 -28 9 -7 21 -39 28 -74 13 -70 29 -84 67
-55 43 32 64 69 69 121 4 45 2 51 -14 51 -11 0 -26 -5 -34 -10 -12 -8 -13 -13
-2 -30 17 -28 15 -54 -5 -73 -35 -31 -44 -25 -47 30 -2 29 -9 59 -16 68 -16
20 -49 19 -57 0z"/>
<path d="M1813 460 c-38 -23 -55 -51 -56 -96 -2 -64 60 -89 109 -44 20 19 24
20 24 7 0 -27 36 -40 56 -20 16 16 15 18 -5 31 -14 10 -21 25 -21 48 0 19 5
34 10 34 16 0 11 47 -6 54 -30 12 -79 6 -111 -14z m75 -46 c4 -25 -34 -74 -57
-74 -42 0 -54 47 -20 81 26 26 73 23 77 -7z"/>
<path d="M2086 461 c-10 -11 -16 -31 -14 -48 3 -24 9 -29 48 -39 57 -14 50
-29 -12 -28 -40 2 -48 -1 -48 -16 0 -24 52 -42 85 -30 29 11 58 52 53 77 -2
12 -18 22 -47 29 -64 15 -67 37 -5 32 43 -3 49 -1 49 17 0 30 -83 34 -109 6z"/>
<path d="M2442 467 c-10 -11 -9 -17 3 -27 13 -10 14 -25 9 -73 -7 -64 4 -84
38 -66 19 10 25 39 7 39 -6 0 -9 25 -7 68 3 62 1 67 -18 70 -11 2 -26 -3 -32
-11z"/>
<path d="M2574 447 c-41 -37 -56 -99 -31 -131 19 -26 72 -25 99 2 l22 21 11
-22 c13 -27 34 -28 49 -4 9 14 7 20 -6 28 -19 11 -26 79 -8 79 16 0 11 47 -6
54 -9 3 -33 6 -55 6 -30 0 -47 -7 -75 -33z m92 -21 c15 -38 -53 -102 -85 -81
-20 12 -12 63 11 79 28 20 67 21 74 2z"/>
</g>
</svg>
