<?xml version="1.0" standalone="no"?>
<!DOCTYPE svg PUBLIC "-//W3C//DTD SVG 20010904//EN"
 "http://www.w3.org/TR/2001/REC-SVG-20010904/DTD/svg10.dtd">
<svg version="1.0" xmlns="http://www.w3.org/2000/svg"
 width="1000.000000pt" height="1000.000000pt" viewBox="0 0 1000.000000 1000.000000"
 preserveAspectRatio="xMidYMid meet">

<g transform="translate(0.000000,1000.000000) scale(0.100000,-0.100000)"
fill="#000000" stroke="none">
<path d="M1420 5245 l0 -815 425 0 425 0 0 815 0 815 -425 0 -425 0 0 -815z
m781 423 c0 -7 6 -71 13 -143 8 -71 12 -133 9 -137 -2 -5 -23 -8 -47 -8 l-43
0 -14 98 -14 97 -102 3 -103 3 0 -376 0 -375 80 0 80 0 0 -45 0 -45 -215 0
-215 0 0 45 0 45 80 0 80 0 0 375 0 375 -100 0 c-72 0 -102 -4 -105 -12 -2 -7
-9 -52 -15 -100 l-12 -88 -43 0 c-24 0 -46 3 -48 8 -2 4 2 63 9 132 7 69 13
133 13 143 1 16 25 17 356 17 277 0 355 -3 356 -12z"/>
<path d="M490 4865 l0 -815 395 0 395 0 0 815 0 815 -395 0 -395 0 0 -815z
m563 412 c102 -37 107 -44 107 -147 0 -95 -3 -100 -61 -100 -27 0 -29 2 -30
43 -2 81 -11 99 -54 115 -22 8 -76 15 -120 16 -135 2 -205 -49 -205 -149 0
-95 32 -118 241 -175 208 -57 269 -117 269 -266 0 -110 -54 -190 -164 -241
-57 -26 -70 -28 -186 -28 -105 0 -136 4 -190 23 -101 35 -99 32 -86 137 7 61
15 90 24 89 6 -1 25 -2 42 -2 29 -2 29 -3 32 -64 l3 -61 40 -15 c25 -10 77
-16 140 -16 89 -1 105 2 144 24 24 14 53 37 64 51 24 34 33 106 17 152 -22 69
-53 84 -313 158 -138 39 -197 106 -197 222 0 75 16 123 57 168 39 44 90 74
150 89 64 16 200 4 276 -23z"/>
<path d="M2831 5589 c-153 -30 -230 -136 -219 -303 6 -86 31 -140 88 -189 70
-60 117 -67 444 -67 241 0 292 -3 317 -16 32 -16 59 -66 59 -110 0 -39 -28
-90 -56 -103 -17 -8 -148 -11 -429 -11 l-405 0 0 -85 0 -85 420 0 c264 0 438
4 470 11 77 16 139 63 174 132 25 49 30 69 30 135 0 100 -17 154 -61 203 -79
87 -138 99 -506 99 l-279 0 -29 29 c-24 24 -29 38 -29 76 0 25 5 55 11 67 24
45 55 48 454 48 l375 0 0 90 0 90 -392 -1 c-216 -1 -413 -5 -437 -10z"/>
<path d="M4690 5345 l0 -245 105 0 104 0 3 153 3 152 120 0 120 0 3 -387 2
-388 100 0 100 0 2 388 3 387 145 0 145 0 3 -152 3 -153 104 0 105 0 0 245 0
245 -585 0 -585 0 0 -245z"/>
<path d="M6997 5583 c-4 -3 -7 -219 -7 -480 l0 -473 95 0 95 0 0 270 0 270
191 0 c185 0 222 -5 241 -34 4 -6 8 -122 8 -258 l0 -248 95 0 95 0 0 269 0
269 -28 52 c-47 90 -61 94 -354 98 l-248 3 0 134 0 135 -88 0 c-49 0 -92 -3
-95 -7z"/>
<path d="M8950 5425 l0 -105 -100 0 -100 0 0 -75 0 -75 100 0 100 0 0 -182 c0
-103 5 -200 11 -223 14 -51 73 -110 124 -124 22 -6 115 -11 208 -11 l167 0 0
75 0 75 -135 0 c-131 0 -137 1 -160 25 -25 24 -25 27 -25 195 l0 170 145 0
145 0 0 75 0 75 -145 0 -145 0 0 105 0 105 -95 0 -95 0 0 -105z"/>
<path d="M6127 5319 c-88 -21 -139 -69 -156 -149 -18 -83 1 -161 51 -207 56
-52 84 -57 368 -61 161 -2 270 -8 278 -14 16 -14 16 -83 -1 -97 -9 -7 -123
-12 -353 -13 l-339 -3 0 -75 0 -75 375 0 c369 0 376 0 417 22 69 37 103 103
103 200 0 101 -49 173 -134 198 -38 12 -108 15 -301 15 -231 0 -253 1 -268 18
-19 21 -21 45 -7 73 10 18 25 19 330 19 l320 0 0 80 0 80 -322 -1 c-178 -1
-340 -5 -361 -10z"/>
<path d="M3840 4975 l0 -345 100 0 100 0 0 270 0 270 150 0 c147 0 152 -1 175
-25 22 -21 25 -33 25 -100 l0 -75 100 0 100 0 0 88 c0 104 -12 150 -47 193
-55 65 -75 69 -405 69 l-298 0 0 -345z"/>
<path d="M7960 4976 l0 -346 95 0 95 0 2 268 3 267 140 3 c77 1 150 0 163 -3
32 -8 52 -61 52 -135 l0 -60 95 0 95 0 0 102 c0 123 -20 174 -83 216 l-40 27
-309 3 -308 3 0 -345z"/>
</g>
</svg>
